<?xml version="1.0" encoding="UTF-8"?>
<!-- Generator: Adobe Illustrator 25.0.0, SVG Export Plug-In . SVG Version: 6.00 Build 0)  -->
<svg xmlns="http://www.w3.org/2000/svg" xmlns:xlink="http://www.w3.org/1999/xlink" version="1.1" >

  <symbol id="user" x="0px" y="0px"  viewBox="0 0 24 24" style="enable-background:new 0 0 24 24" xml:space="preserve">
    <title>user</title>
    <g>
      <path d="M12,4A4,4 0 0,1 16,8A4,4 0 0,1 12,12A4,4 0 0,1 8,8A4,4 0 0,1 12,4M12,14C16.42,14 20,15.79 20,18V20H4V18C4,15.79 7.58,14 12,14Z" />
    </g>
  </symbol>

    <symbol id="cross-circle" x="0px" y="0px"  viewBox="0 0 24 24" style="enable-background:new 0 0 24 24" xml:space="preserve">
    <title>cross-circle</title>
    <g>
	    <path d="M256,0C114.615,0,0,114.615,0,256s114.615,256,256,256s256-114.615,256-256C511.847,114.678,397.322,0.153,256,0z    M341.333,311.189c8.669,7.979,9.229,21.475,1.25,30.144c-7.979,8.669-21.475,9.229-30.144,1.25c-0.434-0.399-0.85-0.816-1.25-1.25   L256,286.165l-55.168,55.168c-8.475,8.185-21.98,7.95-30.165-0.525c-7.984-8.267-7.984-21.373,0-29.64L225.835,256l-55.168-55.168   c-8.185-8.475-7.95-21.98,0.525-30.165c8.267-7.984,21.373-7.984,29.64,0L256,225.835l55.189-55.168   c7.979-8.669,21.475-9.229,30.144-1.25c8.669,7.979,9.229,21.475,1.25,30.144c-0.399,0.434-0.816,0.85-1.25,1.25L286.165,256   L341.333,311.189z"/>
    </g>
  </symbol>

   <symbol id="home" x="0px" y="0px"  viewBox="0 0 24 24" style="enable-background:new 0 0 24 24" xml:space="preserve">
    <title>home</title>
    <g id="_01_align_center" data-name="01 align center">
      <path d="M13.338.833a2,2,0,0,0-2.676,0L0,10.429v10.4a3.2,3.2,0,0,0,3.2,3.2H20.8a3.2,3.2,0,0,0,3.2-3.2v-10.4ZM15,22.026H9V17a3,3,0,0,1,6,0Zm7-1.2a1.2,1.2,0,0,1-1.2,1.2H17V17A5,5,0,0,0,7,17v5.026H3.2a1.2,1.2,0,0,1-1.2-1.2V11.319l10-9,10,9Z"/>
    </g>
  </symbol>

   <symbol id="heart" x="0px" y="0px"  viewBox="0 0 24 24" style="enable-background:new 0 0 24 24" xml:space="preserve">
    <title>heart</title>
    <g>
	    <path d="M17.5,1.917a6.4,6.4,0,0,0-5.5,3.3,6.4,6.4,0,0,0-5.5-3.3A6.8,6.8,0,0,0,0,8.967c0,4.547,4.786,9.513,8.8,12.88a4.974,4.974,0,0,0,6.4,0C19.214,18.48,24,13.514,24,8.967A6.8,6.8,0,0,0,17.5,1.917Zm-3.585,18.4a2.973,2.973,0,0,1-3.83,0C4.947,16.006,2,11.87,2,8.967a4.8,4.8,0,0,1,4.5-5.05A4.8,4.8,0,0,1,11,8.967a1,1,0,0,0,2,0,4.8,4.8,0,0,1,4.5-5.05A4.8,4.8,0,0,1,22,8.967C22,11.87,19.053,16.006,13.915,20.313Z"/>
    </g>
  </symbol>

   <symbol id="settings" x="0px" y="0px"  viewBox="0 0 24 24" style="enable-background:new 0 0 24 24" xml:space="preserve">
    <title>settings</title>
    <g id="_01_align_center" data-name="01 align center">
	    <path d="M100.932 123.348c-12.1 0-21.9-9.8-21.9-21.9s9.8-22 21.9-22 21.9 9.9 21.9 22-9.8 21.9-21.9 21.9zm0-40c-10 0-18.1 8.1-18.1 18.1s8.1 18 18.1 18 18-8.1 18-18-8.1-18.1-18-18.1z"/>
      <path d="M90.232 147.248h-.4c-7-1.6-13.6-4.8-19.3-9.3-.4-.3-.7-.8-.7-1.3s.1-1 .4-1.5l2.7-3.4c-3.7-3.2-6.8-7.1-9.1-11.4l-4 1.9c-1 .5-2.2.1-2.7-.9-3.1-6.5-4.7-13.5-4.7-20.8 0-.5.2-1 .6-1.4.4-.4.9-.6 1.4-.6h4.4c.2-4.9 1.3-9.7 3.3-14.3l-4-1.9c-.5-.2-.8-.6-1-1.1-.2-.5-.1-1 .1-1.5 3-6.5 7.6-12.3 13.2-16.8.8-.7 2.1-.6 2.8.3l2.8 3.4c4-2.9 8.4-5 13.2-6.4l-1-4.3c-.1-.5 0-1.1.3-1.5.3-.4.7-.8 1.2-.9 6.9-1.6 14.4-1.6 21.3-.1 1.1.2 1.7 1.3 1.5 2.4l-1 4.3c4.7 1.3 9.2 3.5 13.2 6.3l2.7-3.4c.3-.4.8-.7 1.3-.7.5-.1 1 .1 1.5.4 5.6 4.5 10.2 10.3 13.3 16.7.2.5.3 1 .1 1.5-.2.5-.5.9-1 1.1l-4 1.9c2 4.6 3.1 9.4 3.3 14.3l4.3-.1c.5 0 1 .2 1.4.6.4.4.6.9.6 1.4 0 7.5-1.6 14.5-4.7 21-.2.5-.6.8-1.1 1s-1 .1-1.5-.1l-4-1.9c-2.3 4.3-5.4 8.2-9.1 11.5l2.7 3.4c.7.9.5 2.1-.3 2.8-5.6 4.5-12.3 7.7-19.2 9.3-1.1.3-2.1-.4-2.4-1.5l-1-4.3c-4.9.9-9.7.9-14.6 0l-1 4.3c-.1.5-.4 1-.9 1.2-.2.3-.5.4-.9.4zm-15.6-11.2c4.3 3.1 9.1 5.4 14.1 6.8l.9-4.2c.1-.5.4-1 .9-1.2.4-.3 1-.4 1.5-.3 5.6 1.3 11.1 1.3 16.8 0 .5-.1 1.1 0 1.5.3s.8.7.9 1.2l1 4.2c5.1-1.4 9.9-3.7 14.1-6.8l-2.7-3.4c-.7-.9-.5-2.1.3-2.8 4.4-3.5 8-8 10.4-13.1.5-1 1.7-1.4 2.7-.9l3.9 1.9c2.1-4.9 3.3-10.1 3.5-15.4l-4.3.1c-.5 0-1-.2-1.4-.6-.4-.4-.6-.9-.6-1.4 0-5.7-1.3-11.2-3.8-16.4-.5-1-.1-2.2.9-2.7l3.9-1.9c-2.5-4.6-5.9-8.8-9.8-12.2l-2.7 3.4c-.7.9-1.9 1-2.8.3-4.5-3.5-9.6-6-15.1-7.2-1.1-.2-1.7-1.3-1.5-2.4l.9-4.2c-5.1-1-10.6-1-15.7 0l1 4.2c.1.5 0 1.1-.3 1.5-.3.4-.7.8-1.2.9-5.5 1.2-10.7 3.7-15.1 7.3-.9.7-2.1.6-2.8-.3l-2.7-3.3c-3.9 3.5-7.3 7.7-9.8 12.3l3.9 1.9c1 .5 1.4 1.7.9 2.6-2.5 5.2-3.7 10.6-3.7 16.3 0 1.1-.9 2.1-2 2.1l-4.2-.2c.2 5.3 1.4 10.4 3.5 15.3l3.9-1.9c.5-.2 1-.3 1.5-.1s.9.5 1.1 1c2.5 5.1 6.1 9.6 10.5 13.1.4.3.7.8.7 1.3s-.1 1-.4 1.5l-2.6 3.4z"/>
    </g>
  </symbol>

  <symbol id="cross" x="0px" y="0px"  viewBox="0 0 24 24" style="enable-background:new 0 0 24 24" xml:space="preserve">
    <title>cross</title>
    <g>
	    <path d="M301.258,256.01L502.645,54.645c12.501-12.501,12.501-32.769,0-45.269c-12.501-12.501-32.769-12.501-45.269,0l0,0   L256.01,210.762L54.645,9.376c-12.501-12.501-32.769-12.501-45.269,0s-12.501,32.769,0,45.269L210.762,256.01L9.376,457.376   c-12.501,12.501-12.501,32.769,0,45.269s32.769,12.501,45.269,0L256.01,301.258l201.365,201.387   c12.501,12.501,32.769,12.501,45.269,0c12.501-12.501,12.501-32.769,0-45.269L301.258,256.01z"/>
    </g>
  </symbol>

   <symbol id="menu-burger" x="0px" y="0px"  viewBox="0 0 24 24" style="enable-background:new 0 0 24 24" xml:space="preserve">
    <title>menu-burger</title>
    <g>
      <path d="M480,224H32c-17.673,0-32,14.327-32,32s14.327,32,32,32h448c17.673,0,32-14.327,32-32S497.673,224,480,224z"/>
      <path d="M32,138.667h448c17.673,0,32-14.327,32-32s-14.327-32-32-32H32c-17.673,0-32,14.327-32,32S14.327,138.667,32,138.667z"/>
      <path d="M480,373.333H32c-17.673,0-32,14.327-32,32s14.327,32,32,32h448c17.673,0,32-14.327,32-32S497.673,373.333,480,373.333z"/>
    </g>
  </symbol>

  <symbol id="cross-small" x="0px" y="0px"  viewBox="-2 0 24 24" style="enable-background:new 0 0 24 24" xml:space="preserve">
    <title>cross-small</title>
    <g>
	    <path d="M18,6h0a1,1,0,0,0-1.414,0L12,10.586,7.414,6A1,1,0,0,0,6,6H6A1,1,0,0,0,6,7.414L10.586,12,6,16.586A1,1,0,0,0,6,18H6a1,1,0,0,0,1.414,0L12,13.414,16.586,18A1,1,0,0,0,18,18h0a1,1,0,0,0,0-1.414L13.414,12,18,7.414A1,1,0,0,0,18,6Z"/>
    </g>
  </symbol>

  <symbol id="close" x="0px" y="0px" viewBox="0 0 24 24" style="enable-background:new 0 0 24 24" xml:space="preserve">
        <title>close</title>
        <g clip-path="url(#clip0_616_1863)">
            <path fill-rule="evenodd" clip-rule="evenodd" d="M4.22097 18.7129C3.92654 19.0073 3.92654 19.4847 4.22097 19.7791C4.5154 20.0735 4.99276 20.0735 5.28719 19.7791L11.9998 13.0665L18.7129 19.7795C19.0073 20.0739 19.4847 20.0739 19.7791 19.7795C20.0735 19.4851 20.0735 19.0077 19.7791 18.7133L13.0661 12.0002L19.7793 5.28705C20.0737 4.99262 20.0737 4.51525 19.7793 4.22082C19.4848 3.92639 19.0075 3.92639 18.713 4.22082L11.9998 10.934L5.28705 4.22122C4.99262 3.92679 4.51525 3.92679 4.22082 4.22122C3.92639 4.51565 3.92639 4.99302 4.22082 5.28745L10.9336 12.0002L4.22097 18.7129Z" stroke-width="0.5" stroke-linecap="round" stroke-linejoin="round" />
        </g>
  </symbol>

  <symbol id="mail" x="0px" y="0px"  viewBox="0 0 24 24" style="enable-background:new 0 0 24 24" xml:space="preserve">
      <title>mail</title>
      <g>
        <path d="M19,1H5A5.006,5.006,0,0,0,0,6V18a5.006,5.006,0,0,0,5,5H19a5.006,5.006,0,0,0,5-5V6A5.006,5.006,0,0,0,19,1ZM5,3H19a3,3,0,0,1,2.78,1.887l-7.658,7.659a3.007,3.007,0,0,1-4.244,0L2.22,4.887A3,3,0,0,1,5,3ZM19,21H5a3,3,0,0,1-3-3V7.5L8.464,13.96a5.007,5.007,0,0,0,7.072,0L22,7.5V18A3,3,0,0,1,19,21Z"/>
      </g>
  </symbol>

  <symbol id="share-link" x="0px" y="0px" fill="none" viewBox="0 0 24 24" style="enable-background:new 0 0 24 24" xml:space="preserve">
      <title>share-link</title>
      <g>
        <path d="M13.1295 1.23508H22.9091V10.938"  stroke-width="1.4" stroke-linecap="round" stroke-linejoin="round"/>
        <line x1="1" y1="-1" x2="21.0195" y2="-1" transform="matrix(-0.709887 0.704315 -0.709887 -0.704316 22.2492 0)"  stroke-width="1.4" stroke-linecap="round" stroke-linejoin="round"/>
        <path d="M10.1749 5.03711H1.09088V22.8573H19.052V14.1757"  stroke-width="1.4" stroke-linecap="round" stroke-linejoin="round"/>
      </g>
  </symbol>

  <symbol id="calendar" x="0px" y="0px"  viewBox="0 0 24 24" style="enable-background:new 0 0 24 24" xml:space="preserve">
     <title>calendar</title>
      <g>
        <path d="M20.6667 4.6665H3.33333C2.59695 4.6665 2 5.26346 2 5.99984V20.6665C2 21.4029 2.59695 21.9998 3.33333 21.9998H20.6667C21.403 21.9998 22 21.4029 22 20.6665V5.99984C22 5.26346 21.403 4.6665 20.6667 4.6665Z"  stroke-width="1.4" stroke-linecap="round" stroke-linejoin="round" />
        <path d="M2 10H22"  stroke-width="1.4" stroke-linecap="round" stroke-linejoin="round" />
        <path d="M7.33331 6.66667V2"  stroke-width="1.4" stroke-linecap="round" stroke-linejoin="round" />
        <path d="M16.6667 6.66667V2"  stroke-width="1.4" stroke-linecap="round" stroke-linejoin="round" />
        <path d="M6.33333 13.3335C6.26741 13.3335 6.20296 13.353 6.14814 13.3897C6.09333 13.4263 6.0506 13.4784 6.02537 13.5393C6.00014 13.6002 5.99354 13.6672 6.00641 13.7319C6.01927 13.7965 6.05101 13.8559 6.09763 13.9025C6.14425 13.9491 6.20364 13.9809 6.2683 13.9938C6.33296 14.0066 6.39999 14 6.46089 13.9748C6.5218 13.9496 6.57386 13.9068 6.61049 13.852C6.64712 13.7972 6.66667 13.7328 6.66667 13.6668C6.66667 13.5784 6.63155 13.4936 6.56904 13.4311C6.50652 13.3686 6.42174 13.3335 6.33333 13.3335Z"  stroke-width="1.4" stroke-linecap="round" stroke-linejoin="round" />
        <path d="M6.33333 18C6.26741 18 6.20296 18.0195 6.14814 18.0562C6.09333 18.0928 6.0506 18.1449 6.02537 18.2058C6.00014 18.2667 5.99354 18.3337 6.00641 18.3984C6.01927 18.463 6.05101 18.5224 6.09763 18.569C6.14425 18.6157 6.20364 18.6474 6.2683 18.6603C6.33296 18.6731 6.39999 18.6665 6.46089 18.6413C6.5218 18.6161 6.57386 18.5733 6.61049 18.5185C6.64712 18.4637 6.66667 18.3993 6.66667 18.3333C6.66667 18.2449 6.63155 18.1601 6.56904 18.0976C6.50652 18.0351 6.42174 18 6.33333 18Z"  stroke-width="1.4" stroke-linecap="round" stroke-linejoin="round" />
        <path d="M12 13.3335C11.9341 13.3335 11.8696 13.353 11.8148 13.3897C11.76 13.4263 11.7173 13.4784 11.6921 13.5393C11.6668 13.6002 11.6602 13.6672 11.6731 13.7319C11.686 13.7965 11.7177 13.8559 11.7643 13.9025C11.8109 13.9491 11.8703 13.9809 11.935 13.9938C11.9997 14.0066 12.0667 14 12.1276 13.9748C12.1885 13.9496 12.2406 13.9068 12.2772 13.852C12.3138 13.7972 12.3334 13.7328 12.3334 13.6668C12.3334 13.5784 12.2982 13.4936 12.2357 13.4311C12.1732 13.3686 12.0884 13.3335 12 13.3335Z"  stroke-width="1.4" stroke-linecap="round" stroke-linejoin="round" />
        <path d="M12 18C11.9341 18 11.8696 18.0195 11.8148 18.0562C11.76 18.0928 11.7173 18.1449 11.6921 18.2058C11.6668 18.2667 11.6602 18.3337 11.6731 18.3984C11.686 18.463 11.7177 18.5224 11.7643 18.569C11.8109 18.6157 11.8703 18.6474 11.935 18.6603C11.9997 18.6731 12.0667 18.6665 12.1276 18.6413C12.1885 18.6161 12.2406 18.5733 12.2772 18.5185C12.3138 18.4637 12.3334 18.3993 12.3334 18.3333C12.3334 18.2449 12.2982 18.1601 12.2357 18.0976C12.1732 18.0351 12.0884 18 12 18Z"  stroke-width="1.4" stroke-linecap="round" stroke-linejoin="round" />
        <path d="M17.6666 13.3335C17.6007 13.3335 17.5363 13.353 17.4815 13.3897C17.4266 13.4263 17.3839 13.4784 17.3587 13.5393C17.3335 13.6002 17.3269 13.6672 17.3397 13.7319C17.3526 13.7965 17.3843 13.8559 17.4309 13.9025C17.4776 13.9491 17.537 13.9809 17.6016 13.9938C17.6663 14.0066 17.7333 14 17.7942 13.9748C17.8551 13.9496 17.9072 13.9068 17.9438 13.852C17.9804 13.7972 18 13.7328 18 13.6668C18 13.5784 17.9649 13.4936 17.9023 13.4311C17.8398 13.3686 17.7551 13.3335 17.6666 13.3335Z"  stroke-width="1.4" stroke-linecap="round" stroke-linejoin="round" />
        <path d="M17.6666 18C17.6007 18 17.5363 18.0195 17.4815 18.0562C17.4266 18.0928 17.3839 18.1449 17.3587 18.2058C17.3335 18.2667 17.3269 18.3337 17.3397 18.3984C17.3526 18.463 17.3843 18.5224 17.4309 18.569C17.4776 18.6157 17.537 18.6474 17.6016 18.6603C17.6663 18.6731 17.7333 18.6665 17.7942 18.6413C17.8551 18.6161 17.9072 18.5733 17.9438 18.5185C17.9804 18.4637 18 18.3993 18 18.3333C18 18.2449 17.9649 18.1601 17.9023 18.0976C17.8398 18.0351 17.7551 18 17.6666 18Z"  stroke-width="1.4" stroke-linecap="round" stroke-linejoin="round" />
      </g>
  </symbol>

  <symbol id="info" x="0px" y="0px" fill="none" viewBox="0 0 24 24" style="enable-background:new 0 0 24 24;" xml:space="preserve">
        <title>info</title>
        <g>
            <path d="M14.0454 16.0908H13.3636C13.002 16.0908 12.6551 15.9471 12.3994 15.6914C12.1437 15.4356 12 15.0888 12 14.7271V11.318C12 11.1372 11.9282 10.9638 11.8003 10.8359C11.6724 10.7081 11.499 10.6362 11.3182 10.6362H10.6364"  stroke-width="1.4" stroke-linecap="round" stroke-linejoin="round" />
            <path d="M11.5 7C11.4011 7 11.3044 7.02932 11.2222 7.08427C11.14 7.13921 11.0759 7.2173 11.0381 7.30866C11.0002 7.40002 10.9903 7.50055 11.0096 7.59754C11.0289 7.69454 11.0765 7.78363 11.1464 7.85355C11.2164 7.92348 11.3055 7.9711 11.4025 7.99039C11.4994 8.00969 11.6 7.99978 11.6913 7.96194C11.7827 7.9241 11.8608 7.86001 11.9157 7.77778C11.9707 7.69556 12 7.59889 12 7.5C12 7.36739 11.9473 7.24021 11.8536 7.14645C11.7598 7.05268 11.6326 7 11.5 7Z" fill="#0D3050"  stroke-width="1.4" stroke-linecap="round" stroke-linejoin="round" />
            <path d="M1.77271 12.0002C1.77271 14.7127 2.85022 17.314 4.7682 19.232C6.68619 21.15 9.28754 22.2275 12 22.2275C14.7124 22.2275 17.3138 21.15 19.2318 19.232C21.1497 17.314 22.2272 14.7127 22.2272 12.0002C22.2272 9.28778 21.1497 6.68643 19.2318 4.76845C17.3138 2.85046 14.7124 1.77295 12 1.77295C9.28754 1.77295 6.68619 2.85046 4.7682 4.76845C2.85022 6.68643 1.77271 9.28778 1.77271 12.0002V12.0002Z"  stroke-width="1.4" stroke-linecap="round" stroke-linejoin="round" />
        </g>
    </symbol>

    <symbol id="completed" x="0px" y="0px" fill="none" viewBox="0 0 24 24" style="enable-background:new 0 0 24 24;" xml:space="preserve">
        <title>completed</title>
        <g>
            <path d="M6.56125 11.3346L10.0747 15.3369C10.2193 15.5017 10.4003 15.6314 10.6037 15.716C10.8071 15.8007 11.0276 15.8381 11.2481 15.8253C11.4686 15.8125 11.6833 15.7498 11.8757 15.6422C12.0681 15.5346 12.2331 15.3848 12.358 15.2044L21.382 2.16558"  stroke-width="1.7" stroke-linecap="round" stroke-linejoin="round" />
            <path d="M16.3344 3.13378C14.5296 2.28478 12.4989 1.99046 10.5085 2.30366C8.15646 2.67376 6.01731 3.8675 4.48117 5.66718C2.94503 7.46686 2.11426 9.75256 2.14037 12.1074C2.16647 14.4623 3.04771 16.7295 4.62337 18.4954C6.19904 20.2614 8.36413 21.4084 10.7238 21.7275C13.0835 22.0465 15.4805 21.5162 17.4778 20.2333C19.475 18.9504 20.9394 17.0004 21.6038 14.7389C22.1747 12.7958 22.1223 10.7339 21.4675 8.83353"  stroke-width="1.7" stroke-linecap="round" stroke-linejoin="round" />
        </g>
    </symbol>

     <symbol id="search" x="0px" y="0px" fill="none" viewBox="0 0 24 24" style="enable-background:new 0 0 24 24;" xml:space="preserve">
        <title>search</title>
        <g>
            <path d="M3.19968 13.9275C4.04829 15.9242 5.65536 17.502 7.66734 18.3138C9.67933 19.1257 11.9314 19.105 13.9282 18.2565C15.925 17.4079 17.5029 15.8009 18.3147 13.789C19.1266 11.7771 19.106 9.52506 18.2574 7.52836C17.4088 5.53167 15.8017 3.95384 13.7897 3.142C11.7777 2.33016 9.52561 2.35079 7.52884 3.19937C5.53207 4.04794 3.95419 5.65495 3.14231 7.66686C2.33044 9.67877 2.35107 11.9308 3.19968 13.9275V13.9275Z"  stroke-width="1.7" stroke-linecap="round" stroke-linejoin="round" />
            <path d="M16.5128 16.5117L22.8574 22.857"  stroke-width="1.7" stroke-linecap="round" stroke-linejoin="round" />
        </g>
    </symbol>

     <symbol id="question" x="0px" y="0px" fill="none" viewBox="0 0 24 24" style="enable-background:new 0 0 24 24;" xml:space="preserve">
        <title>question</title>
        <g>
            <path d="M9.09106 9.09067C9.09117 8.55736 9.23787 8.03434 9.51513 7.57878C9.7924 7.12322 10.1896 6.75264 10.6632 6.50754C11.1369 6.26245 11.6688 6.15227 12.2008 6.18906C12.7328 6.22584 13.2445 6.40817 13.6799 6.71612C14.1154 7.02406 14.4577 7.44578 14.6697 7.93516C14.8816 8.42455 14.9549 8.96278 14.8816 9.49103C14.8083 10.0193 14.5913 10.5172 14.2541 10.9304C13.9169 11.3436 13.4727 11.6562 12.9699 11.8339C12.6861 11.9342 12.4405 12.1201 12.2668 12.3658C12.0932 12.6116 12 12.9051 12.0002 13.2061V14.1816"  stroke-width="1.7" stroke-linecap="round" stroke-linejoin="round" />
            <path d="M12 16.7998C11.7627 16.7998 11.5307 16.8702 11.3334 17.002C11.136 17.1339 10.9822 17.3213 10.8914 17.5406C10.8006 17.7599 10.7768 18.0011 10.8231 18.2339C10.8694 18.4667 10.9837 18.6805 11.1515 18.8483C11.3193 19.0162 11.5332 19.1304 11.7659 19.1767C11.9987 19.223 12.24 19.1993 12.4593 19.1085C12.6785 19.0176 12.866 18.8638 12.9978 18.6665C13.1297 18.4692 13.2001 18.2371 13.2001 17.9998C13.2001 17.6815 13.0736 17.3763 12.8486 17.1513C12.6235 16.9262 12.3183 16.7998 12 16.7998Z" stroke="none" fill="#0D3050" />
            <path d="M1.09094 11.9999C1.09094 14.8932 2.24029 17.668 4.28614 19.7138C6.33199 21.7597 9.10676 22.909 12 22.909C14.8933 22.909 17.6681 21.7597 19.7139 19.7138C21.7598 17.668 22.9091 14.8932 22.9091 11.9999C22.9091 9.10664 21.7598 6.33187 19.7139 4.28602C17.6681 2.24017 14.8933 1.09082 12 1.09082C9.10676 1.09082 6.33199 2.24017 4.28614 4.28602C2.24029 6.33187 1.09094 9.10664 1.09094 11.9999Z"  stroke-width="1.7" />
        </g>
    </symbol>

     <symbol id="logout" x="0px" y="0px" fill="none" viewBox="-1 0 24 24" style="enable-background:new 0 0 24 24" xml:space="preserve">
        <title>logout</title>
        <g>
            <path d="M9.44 12.0026H19.52"  stroke-width="1.2" stroke-linecap="round" stroke-linejoin="round"/>
            <path d="M17.12 14.5026L19.52 12.0026L17.12 9.50261"  stroke-width="1.1" stroke-linecap="round" stroke-linejoin="round"/>
            <path d="M14.72 15V18C14.731 18.253 14.6453 18.5003 14.4817 18.6877C14.3181 18.8751 14.0899 18.9874 13.8471 19H5.99235C5.7496 18.9872 5.52158 18.8749 5.35812 18.6875C5.19466 18.5001 5.10906 18.2529 5.12003 18V6C5.10889 5.74703 5.19444 5.49976 5.35793 5.31234C5.52142 5.12492 5.74954 5.01261 5.99235 5H13.8471C14.0899 5.01261 14.3181 5.1249 14.4817 5.3123C14.6453 5.4997 14.731 5.74696 14.72 6V9"  stroke-width="1.2" stroke-linecap="round" stroke-linejoin="round"/>
        </g>
    </symbol>

    <symbol id="chevron-up" x="0px" y="0px" viewBox="0 -4 24 24" style="enable-background:new 0 0 24 24" xml:space="preserve">>
        <title>chevron-up</title>
        <g>
        <path fill-rule="evenodd" clip-rule="evenodd" d="M23.0526 12.9474C22.5294 13.4706 21.6811 13.4706 21.1579 12.9474L12 3.78947L2.84211 12.9474C2.31889 13.4706 1.47059 13.4706 0.947368 12.9474C0.424152 12.4242 0.424152 11.5758 0.947368 11.0526L11.0526 0.947369C11.5758 0.424152 12.4242 0.424153 12.9474 0.947369L23.0526 11.0526C23.5758 11.5758 23.5758 12.4242 23.0526 12.9474Z" stroke-width="0" stroke-linecap="round" stroke-linejoin="round"/>
        </g>
    </symbol>

    <symbol id="chevron-right" x="0px" y="0px" viewBox="-5 0 24 24" style="enable-background:new 0 0 24 24" xml:space="preserve">>
        <title>chevron-right</title>
        <g>
            <path fill-rule="evenodd" clip-rule="evenodd" d="M1.05263 23.0526C0.529415 22.5294 0.529415 21.6811 1.05263 21.1579L10.2105 12L1.05263 2.84211C0.529415 2.31889 0.529414 1.47059 1.05263 0.947368C1.57585 0.424152 2.42415 0.424152 2.94737 0.947368L13.0526 11.0526C13.5758 11.5758 13.5758 12.4242 13.0526 12.9474L2.94737 23.0526C2.42415 23.5758 1.57585 23.5758 1.05263 23.0526Z" stroke-width="0" stroke-linecap="round" stroke-linejoin="round" />
        </g>
    </symbol>

    <symbol id="chevron-down" x="0px" y="0px" viewBox="0 1 24 24" style="enable-background:new 0 0 24 24" xml:space="preserve">>
        <title>chevron-down</title>
        <g>
            <path fill-rule="evenodd" clip-rule="evenodd" d="M0.947368 11.0526C1.47059 10.5294 2.31889 10.5294 2.84211 11.0526L12 20.2105L21.1579 11.0526C21.6811 10.5294 22.5294 10.5294 23.0526 11.0526C23.5758 11.5758 23.5758 12.4242 23.0526 12.9474L12.9474 23.0526C12.4242 23.5758 11.5758 23.5758 11.0526 23.0526L0.947368 12.9474C0.424151 12.4242 0.424151 11.5758 0.947368 11.0526Z" stroke-width="0" stroke-linecap="round" stroke-linejoin="round" />
        </g>
    </symbol>


    <symbol id="chevron-left" x="0px" y="0px" viewBox="-4 0 24 24" style="enable-background:new 0 0 24 24" xml:space="preserve">>
        <title>chevron-left</title>
        <g>
            <path fill-rule="evenodd" clip-rule="evenodd" d="M12.9474 0.947368C13.4706 1.47059 13.4706 2.31889 12.9474 2.84211L3.78947 12L12.9474 21.1579C13.4706 21.6811 13.4706 22.5294 12.9474 23.0526C12.4242 23.5758 11.5758 23.5758 11.0526 23.0526L0.947369 12.9474C0.424152 12.4242 0.424153 11.5758 0.947369 11.0526L11.0526 0.947368C11.5758 0.424151 12.4242 0.424151 12.9474 0.947368Z" stroke-width="0" stroke-linecap="round" stroke-linejoin="round" />
        </g>
    </symbol>

     <symbol id="phone" x="0px" y="0px" fill="none" viewBox="0 0 24 24" style="enable-background:new 0 0 24 24" xml:space="preserve">>
        <title>phone</title>
        <g>
            <path d="M14.9478 22.0629L14.9595 22.0697C15.9894 22.7253 17.2122 23.0101 18.4259 22.877C19.6396 22.7439 20.7717 22.2009 21.635 21.3376L22.3856 20.5872C22.7208 20.2516 22.9091 19.7967 22.9091 19.3224C22.9091 18.848 22.7208 18.3931 22.3856 18.0575L19.2233 14.8976C18.8877 14.5625 18.4327 14.3742 17.9583 14.3742C17.484 14.3742 17.029 14.5625 16.6933 14.8976V14.8976C16.5273 15.0638 16.3302 15.1956 16.1133 15.2856C15.8963 15.3755 15.6637 15.4218 15.4288 15.4218C15.1939 15.4218 14.9614 15.3755 14.7444 15.2856C14.5274 15.1956 14.3303 15.0638 14.1643 14.8976L9.10434 9.83735C8.76911 9.50175 8.58082 9.04683 8.58082 8.57252C8.58082 8.09821 8.76911 7.64329 9.10434 7.30769V7.30769C9.27052 7.14173 9.40236 6.94464 9.49232 6.72769C9.58227 6.51075 9.62857 6.2782 9.62857 6.04335C9.62857 5.8085 9.58227 5.57595 9.49232 5.359C9.40236 5.14206 9.27052 4.94497 9.10434 4.779L5.94306 1.61426C5.60742 1.27909 5.15244 1.09082 4.67807 1.09082C4.2037 1.09082 3.74872 1.27909 3.41307 1.61426L2.66251 2.36473C1.7993 3.22803 1.25625 4.35979 1.12297 5.57325C0.989687 6.78671 1.27415 8.00934 1.92941 9.03938L1.93717 9.05101C5.40236 14.18 9.81899 18.597 14.9478 22.0629V22.0629Z" stroke-width="1.4" stroke-linecap="round" stroke-linejoin="round"/>
        </g>
    </symbol>

    <symbol id="notification" x="0px" y="0px"  viewBox="0 0 24 24" style="enable-background:new 0 0 24 24" xml:space="preserve">
    <title>notification</title>
    <g>
	    <path d="M12 24c1.104.002 1.998-.89 2-1.994-.002-1.105-.896-1.998-2-2-1.104-.002-1.998.89-2 1.994.002 1.105.896 1.998 2 2zM19.292 16c-.396 0-.708-.314-.708-.707V11c0-3.309-2.207-6.116-5.281-7.055-.124-.104-.278-.164-.439-.164h-2.268c-.161 0-.315.06-.439.164C7.207 4.884 5 7.691 5 11v4.293c0 .393-.312.707-.708.707-1.018 0-1.785.678-1.785 1.464C2.506 18.582 5.574 21 12 21c6.426 0 9.494-2.418 9.494-3.536 0-.786-.767-1.464-1.785-1.464h-.417z"/>
    </g>
  </symbol>


  <symbol id="angel-left" x="0px" y="0px"  viewBox="0 0 24 24" style="enable-background:new 0 0 24 24" xml:space="preserve">
    <title>angel-left</title>
    <g>
	    <path d="M17.17,24a1,1,0,0,1-.71-.29L8.29,15.54a5,5,0,0,1,0-7.08L16.46.29a1,1,0,1,1,1.42,1.42L9.71,9.88a3,3,0,0,0,0,4.24l8.17,8.17a1,1,0,0,1,0,1.42A1,1,0,0,1,17.17,24Z"/>
    </g>
  </symbol>

  <symbol id="angel-right" x="0px" y="0px"  viewBox="0 0 24 24" style="enable-background:new 0 0 24 24" xml:space="preserve">
    <title>angel-right</title>
    <g>
	    <path d="M7,24a1,1,0,0,1-.71-.29,1,1,0,0,1,0-1.42l8.17-8.17a3,3,0,0,0,0-4.24L6.29,1.71A1,1,0,0,1,7.71.29l8.17,8.17a5,5,0,0,1,0,7.08L7.71,23.71A1,1,0,0,1,7,24Z"/>
    </g>
  </symbol>

  <symbol id="angel-circle-left" x="0px" y="0px"  viewBox="0 0 24 24" style="enable-background:new 0 0 24 24" xml:space="preserve">
    <title>angel-circle-left</title>
    <g>
	    <path d="M12,24C5.383,24,0,18.617,0,12S5.383,0,12,0s12,5.383,12,12-5.383,12-12,12ZM12,1C5.935,1,1,5.935,1,12s4.935,11,11,11,11-4.935,11-11S18.065,1,12,1Zm1.854,16.26l-4.877-4.876c-.211-.212-.211-.557,0-.768l4.873-4.872-.707-.707-4.873,4.873c-.601,.601-.601,1.58,0,2.181l4.877,4.877,.707-.707Z"/>
    </g>
  </symbol>

  <symbol id="menu" x="0px" y="0px"  viewBox="0 0 24 24" style="enable-background:new 0 0 24 24" xml:space="preserve">
    <title>menu</title>
    <g>
      <path d="M3,6H21V8H3V6M3,11H21V13H3V11M3,16H21V18H3V16Z" />
    </g>
  </symbol>

  <symbol id="bars" x="0px" y="0px"  viewBox="0 0 24 24" style="enable-background:new 0 0 24 24" xml:space="preserve">
    <title>bars</title>
    <g>
      <rect width="18" height="2" x="3" y="6" rx="1" ry="1" />
      <rect width="18" height="2" x="3" y="11" rx="1" ry="1" />
      <rect width="18" height="2" x="3" y="16" rx="1" ry="1" />
    </g>
  </symbol>

  <symbol id="menu-burger" x="0px" y="0px"  viewBox="0 0 24 24" style="enable-background:new 0 0 24 24" xml:space="preserve">
    <title>menu-burger</title>
    <g>
	    <path d="M480,224H32c-17.673,0-32,14.327-32,32s14.327,32,32,32h448c17.673,0,32-14.327,32-32S497.673,224,480,224z"/>
      <path d="M32,138.667h448c17.673,0,32-14.327,32-32s-14.327-32-32-32H32c-17.673,0-32,14.327-32,32S14.327,138.667,32,138.667z"/>
      <path d="M480,373.333H32c-17.673,0-32,14.327-32,32s14.327,32,32,32h448c17.673,0,32-14.327,32-32S497.673,373.333,480,373.333z"/>
    </g>
  </symbol>

  <symbol id="account-group" x="0px" y="0px"  viewBox="0 0 24 24" style="enable-background:new 0 0 24 24" xml:space="preserve">
    <title>account-group</title>
    <g>
      <path d="M12,5.5A3.5,3.5 0 0,1 15.5,9A3.5,3.5 0 0,1 12,12.5A3.5,3.5 0 0,1 8.5,9A3.5,3.5 0 0,1 12,5.5M5,8C5.56,8 6.08,8.15 6.53,8.42C6.38,9.85 6.8,11.27 7.66,12.38C7.16,13.34 6.16,14 5,14A3,3 0 0,1 2,11A3,3 0 0,1 5,8M19,8A3,3 0 0,1 22,11A3,3 0 0,1 19,14C17.84,14 16.84,13.34 16.34,12.38C17.2,11.27 17.62,9.85 17.47,8.42C17.92,8.15 18.44,8 19,8M5.5,18.25C5.5,16.18 8.41,14.5 12,14.5C15.59,14.5 18.5,16.18 18.5,18.25V20H5.5V18.25M0,20V18.5C0,17.11 1.89,15.94 4.45,15.6C3.86,16.28 3.5,17.22 3.5,18.25V20H0M24,20H20.5V18.25C20.5,17.22 20.14,16.28 19.55,15.6C22.11,15.94 24,17.11 24,18.5V20Z" />
    </g>
  </symbol>

  <symbol id="user-alt" x="0px" y="0px"  viewBox="0 0 24 24" style="enable-background:new 0 0 24 24" xml:space="preserve">
    <title>user-alt</title>
    <g>
	    <path d="M12,16a4,4,0,1,1,4-4A4,4,0,0,1,12,16Zm0-6a2,2,0,1,0,2,2A2,2,0,0,0,12,10Zm6,13A6,6,0,0,0,6,23a1,1,0,0,0,2,0,4,4,0,0,1,8,0,1,1,0,0,0,2,0ZM18,8a4,4,0,1,1,4-4A4,4,0,0,1,18,8Zm0-6a2,2,0,1,0,2,2A2,2,0,0,0,18,2Zm6,13a6.006,6.006,0,0,0-6-6,1,1,0,0,0,0,2,4,4,0,0,1,4,4,1,1,0,0,0,2,0ZM6,8a4,4,0,1,1,4-4A4,4,0,0,1,6,8ZM6,2A2,2,0,1,0,8,4,2,2,0,0,0,6,2ZM2,15a4,4,0,0,1,4-4A1,1,0,0,0,6,9a6.006,6.006,0,0,0-6,6,1,1,0,0,0,2,0Z"/>
    </g>
  </symbol>

  <symbol id="user-add" x="0px" y="0px"  viewBox="0 0 24 24" style="enable-background:new 0 0 24 24" xml:space="preserve">
    <title>user-add</title>
    <g>
	    <path d="M15,14C12.33,14 7,15.33 7,18V20H23V18C23,15.33 17.67,14 15,14M6,10V7H4V10H1V12H4V15H6V12H9V10M15,12A4,4 0 0,0 19,8A4,4 0 0,0 15,4A4,4 0 0,0 11,8A4,4 0 0,0 15,12Z" />
    </g>
  </symbol>


  <symbol id="boxing" x="0px" y="0px"  viewBox="0 0 24 24" style="enable-background:new 0 0 24 24" xml:space="preserve">
    <title>boxing</title>
    <g>
	    <path d="M19,16V6H22V16H19M12,4C8,4 7,4 7,4C7,4 2,4 2,8V14C2,15.77 3,16.76 4.07,17.31C4.4,15.43 6.03,14 8,14H11V16H8A2,2 0 0,0 6,18C6,19.11 6.9,20 8,20H13C17,20 17,16 17,16V6C17,6 16,4 12,4Z" />
    </g>
  </symbol>


  <symbol id="karate" x="0px" y="0px"  viewBox="0 0 24 24" style="enable-background:new 0 0 24 24" xml:space="preserve">
    <title>karate</title>
    <g>
	   <path d="M19.8 2L11.6 8.7L10.39 7.66L14 5.58L9.41 1L8 2.41L10.74 5.15L5 8.46L3.81 12.75L6.27 17L8 16L5.97 12.5L6.32 11.18L9.5 13L10 22H12L12.5 12L21 3.4L19.8 2M5 3C6.11 3 7 3.9 7 5S6.11 7 5 7 3 6.11 3 5 3.9 3 5 3Z" />
    </g>
  </symbol>

<symbol id="mma" x="0px" y="0px"  viewBox="0 0 24 24" style="enable-background:new 0 0 24 24" xml:space="preserve">
    <title>mma</title>
    <g>
	    <path d="M15,10V7H7V10H15M18,7C18.28,7 18.5,7.09 18.7,7.29C18.89,7.5 19,7.73 19,8V10.78C19,10.97 18.97,11.11 18.94,11.2L18.14,15.19C18,15.72 17.7,16 17.2,16H6.8C6.27,16 5.95,15.72 5.86,15.19L5.06,11.2C5.03,11.11 5,10.97 5,10.78V5C5,4.5 5.21,4 5.6,3.61C6,3.2 6.45,3 7,3H15C15.53,3 16,3.2 16.41,3.61C16.81,4 17,4.5 17,5V8C17,7.73 17.11,7.5 17.3,7.29C17.5,7.09 17.72,7 18,7M7,20V17H17V20C17,20.3 16.91,20.53 16.71,20.72C16.5,20.91 16.27,21 16,21H8C7.73,21 7.5,20.91 7.29,20.72C7.09,20.53 7,20.3 7,20Z" />

    </g>
  </symbol>

<symbol id="person-boxing" x="0px" y="0px"  viewBox="0 0 24 24" style="enable-background:new 0 0 24 24" xml:space="preserve">
    <title>person-boxing</title>
    <g>
	    <path d="M364.61,678.36c-22.57,0-44.86-1.52-66.57-4.55c-4.2-0.59-7.97-2.94-10.35-6.45c-2.38-3.52-3.17-7.9-2.16-12.03
			c7.24-29.47,7.37-60.61,7.5-90.73c0.15-35.63,0.31-72.48,12.21-106.93c0.7-2.03,2.24-3.66,4.22-4.48
			c1.98-0.82,4.22-0.75,6.15,0.18c39.03,18.97,74,32.15,117.81,34.85c14.85,0.91,33.42-1.26,41.02-10.12
			c1.43-1.67,3.52-2.65,5.71-2.62c2.19,0,4.28,0.97,5.7,2.64c3.6,4.24,7.41,8.6,11.1,12.82c16.37,18.75,33.29,38.14,44.79,60.09
			c13.84,26.43,22.09,52.23,24.53,76.69c0.46,4.6-1.1,9.17-4.29,12.51c-3.2,3.36-7.7,5.17-12.36,4.94
			c-16.41-0.8-33.55,4.61-49.7,10.23l-1.63,0.57c-19.01,6.62-38.67,13.47-59.35,12c-5.31-0.38-9.83-4.08-11.25-9.22
			c-3.57-12.92-8.72-25.64-14.06-38.05c-3.49,13.62-5.2,28.88-4.78,43.57c0.19,6.87-5,12.6-11.84,13.03
			C386.16,678.01,375.36,678.36,364.61,678.36z M316.88,470.62c-8.57,29.72-8.7,61.05-8.84,94.05c-0.13,30.99-0.27,63.04-7.93,94.24
			c30.35,4.27,61.85,5.46,93.7,3.58c-0.31-20.96,3.3-42.86,10-60.44c0.67-1.75,1.96-3.18,3.63-4.02c3.94-1.99,8.88-1.17,12.3,2.04
			c2.15,2.02,3.19,4.41,3.88,5.99c6.58,15.11,13.38,30.71,18.06,47.06c17.07,0.76,34.65-5.37,51.67-11.3l1.64-0.57
			c17.54-6.1,36.27-11.98,55.36-11.05c0.3,0.02,0.56-0.08,0.76-0.29c0.27-0.29,0.24-0.59,0.23-0.69
			c-2.24-22.54-9.95-46.5-22.89-71.22c-10.67-20.38-27-39.09-42.8-57.18c-2.06-2.36-4.17-4.77-6.26-7.19
			c-14.73,10.2-37,10.17-46.89,9.56C389.21,500.53,354.44,488.34,316.88,470.62z"></path>
      <path d="M266.59 825.71c-.25-3.37-.5-6.67-.75-9.9-2.56-33.66-4.58-60.25.5-91.56 3.77-23.28 14-42.67 25.04-62.13l13.04 7.41c-10.34 18.22-19.91 36.3-23.28 57.13-4.79 29.56-2.83 55.36-.35 88.03.25 3.25.5 6.56.75 9.94L266.59 825.71zM313.12 831.02l-14.09-5.15c11.18-30.61 21.18-71.55 24.31-99.56.09-.84.18-1.69.27-2.53.6-5.73 1.23-11.65 3.42-17.55 2.43-6.54 6.39-12 10.22-17.28 4.72-6.51 8.8-12.13 9.15-18.37l14.98.85c-.6 10.63-6.65 18.97-11.99 26.33-3.39 4.67-6.58 9.08-8.3 13.7-1.54 4.13-2.04 8.88-2.56 13.9-.09.88-.18 1.75-.28 2.63C334.95 757.51 324.85 798.91 313.12 831.02z"></path><path d="M287.36 928.89c-6.05 0-12.43-1.41-18.64-4.17-8.46-3.76-14.63-9.24-17.85-15.85-3.03-6.22-3.68-13.86-1.88-22.1 1.1-5.03 2.91-9.63 4.65-14.07.47-1.19.93-2.38 1.38-3.57 5.03-13.33 7.84-27.12 8.13-39.88.1-4.28 2.49-8.21 6.25-10.26 3.8-2.07 8.26-1.97 11.94.28 3.58 2.19 6.31 3.41 8.86 3.96 3.22.7 6.31.3 7.86-1.01 0 0 0 0 0 0 2.64-2.23 6.23-3.05 9.6-2.19 3.42.87 6.23 3.35 7.5 6.63 5.6 14.42 10.19 29.91 5.86 45.51-.54 1.96-1.2 3.79-1.83 5.56-.98 2.73-1.9 5.31-2.11 7.64-.2 2.16.16 4.69.53 7.36.51 3.66 1.1 7.81.44 12.23-1.54 10.34-9.94 19.42-20.89 22.59C294.08 928.45 290.77 928.89 287.36 928.89zM277.94 834.54c-.85 12.99-3.89 26.67-8.87 39.88-.47 1.25-.96 2.5-1.45 3.75-1.6 4.08-3.11 7.94-3.96 11.81-.75 3.42-1.23 8.33.71 12.31 2.09 4.29 6.85 7.11 10.46 8.72 6.49 2.88 12.95 3.64 18.2 2.12 5.34-1.54 9.54-5.82 10.22-10.39.34-2.27-.05-5.02-.46-7.93-.46-3.25-.97-6.93-.61-10.82.39-4.21 1.73-7.98 2.92-11.31.57-1.59 1.1-3.09 1.5-4.53 2.76-9.94.15-20.87-3.67-31.48-4.59 2.01-10.13 2.46-15.88 1.22C283.65 837.15 280.59 835.89 277.94 834.54zM641.31 945.04c-1.92 0-3.59-.14-4.84-.29-14.67-1.76-27.97-7.74-40.83-13.53-12.81-5.76-24.91-11.21-37.76-12.43-1.03-.1-2.07-.17-3.11-.25-5.92-.43-12.63-.92-18.57-5.04-10.65-7.39-13.05-21.96-6.76-41.03 2.52-7.64 3.16-15.15 2.01-23.65-.52-3.82.71-7.6 3.36-10.38 2.63-2.75 6.32-4.14 10.12-3.8h0c11.65 1.04 18.46.12 26.02-3.51 3.31-1.59 7.13-1.66 10.49-.19 3.34 1.47 5.86 4.31 6.92 7.81 7.18 23.68 27.89 46.34 55.4 60.6.77.4 1.55.79 2.33 1.19 5.71 2.87 12.18 6.13 16.73 12.73 2.92 4.24 4.22 9.17 3.65 13.89-.85 7.11-5.29 12.65-12.51 15.59C649.52 944.55 644.95 945.04 641.31 945.04zM546.65 849.82c.91 9.55-.06 18.52-2.97 27.34-1.46 4.44-5.72 19.3 1.07 24.01 2.57 1.78 6.71 2.08 11.11 2.41 1.16.08 2.31.17 3.45.28 15.31 1.46 29.12 7.68 42.48 13.69 12.38 5.57 24.07 10.83 36.47 12.31 3.67.44 7.42.06 10.04-1.01 3.01-1.23 3.19-2.75 3.28-3.48.13-1.08-.28-2.39-1.11-3.6-2.37-3.44-6.43-5.48-11.12-7.84-.83-.42-1.67-.84-2.49-1.27-30.01-15.55-52.97-40.39-61.98-66.86C565.29 849.85 556.45 850.47 546.65 849.82z"></path><path d="M582.98 838.96l-14.97-.95c4.16-65.85 4.03-84.61-.79-111.54-.65-3.66-1.62-7.22-2.64-11-1.75-6.5-3.57-13.21-3.81-20.67-.11-3.44-.03-6.84.05-10.12.12-5.1.23-9.93-.34-14.58-1.28-10.4-6.34-20.54-13.9-27.84L557 631.47c10.14 9.78 16.66 22.85 18.37 36.81.7 5.74.57 11.34.44 16.76-.08 3.22-.15 6.27-.05 9.29.18 5.71 1.69 11.31 3.29 17.24 1.06 3.92 2.15 7.97 2.92 12.26C587.02 751.92 587.19 772.37 582.98 838.96zM534.03 843.69c-3.94-28.75-10.48-49.93-19.28-76.72-6.58-20.04-13.58-46.31-9.2-71.77.66-3.83-.84-7.68-3.92-10.05-9.59-7.35-17.66-17.32-23.32-28.83l13.46-6.62c4.65 9.45 11.22 17.59 18.99 23.54 7.52 5.76 11.19 15.15 9.58 24.5-3.82 22.2 2.63 46.16 8.67 64.54 9.05 27.54 15.77 49.36 19.89 79.36L534.03 843.69zM489.15 335.76c-.43 0-.87-.03-1.31-.09-2.38-.35-4.48-1.6-5.9-3.54-9.78-13.28-18.23-26.03-25.85-38.97-2.44-4.14-1.09-9.58 2.99-12.11 9.76-6.06 18.99-12.19 26.41-17.12 2.19-1.46 4.25-2.82 6.16-4.08 3.03-11.54 6.66-24.24 13.77-35.24 9.14-14.14 23.02-22.92 37.13-23.48 12.05-.49 24.67 5.03 34.6 15.11 8.48 8.62 14.08 19.26 18.86 29.47 4.12 8.78 8 18.26 6.33 29.07-.96 6.23-3.91 11.74-8.31 15.53-8.48 7.31-18.57 6.08-26.67 5.08-2.7-.33-5.26-.65-7.6-.66-9.89-.08-19.37 5.32-28.14 11.18l-37.12 28.05C492.94 335.14 491.08 335.76 489.15 335.76zM472.05 290.61c5.58 9.16 11.63 18.29 18.35 27.65l32.35-24.45c.11-.09.23-.17.35-.25 10.29-6.89 22.74-13.91 36.76-13.83 3.21.02 6.33.4 9.33.77 7.19.88 11.76 1.28 15.04-1.55 1.7-1.46 2.86-3.76 3.28-6.47 1.03-6.64-1.82-13.44-5.08-20.41-4.22-9.01-9.08-18.31-15.98-25.32-6.96-7.08-15.45-10.95-23.3-10.64-10.88.44-20.12 8.88-25.14 16.64-6.38 9.87-9.54 21.97-12.59 33.67-.47 1.81-1.6 3.37-3.16 4.39-2.51 1.64-5.36 3.53-8.48 5.6C487.58 280.55 480.1 285.52 472.05 290.61z"></path><path d="M392.79,378.33c-9.35,0-18.16-5.1-22.63-13.9c-19.26-37.91-38.9-82.72-27.98-134.95l14.68,3.07
			c-9.92,47.47,8.56,89.46,26.67,125.09c2.48,4.89,8.29,6.97,13.51,4.84c5.78-2.36,11.69-3.72,17.4-5.03
			c1.94-0.45,3.87-0.89,5.77-1.37c23.49-5.94,45.16-19.3,61.02-37.62l11.34,9.82c-17.85,20.62-42.24,35.66-68.69,42.35
			c-2.03,0.51-4.1,0.99-6.09,1.45c-5.37,1.23-10.44,2.4-15.1,4.3C399.45,377.69,396.08,378.33,392.79,378.33z"></path>
      <path d="M390.07,313.13l-5.48-13.96c11.79-4.63,24.15-5.23,36.1-5.81c1.97-0.1,3.94-0.19,5.91-0.31
			c11.63-0.68,24.78-2.32,34.06-9.37l9.07,11.95c-12.49,9.48-28.37,11.59-42.25,12.4c-2.01,0.12-4.03,0.22-6.05,0.31
			C410.18,308.89,399.57,309.4,390.07,313.13z"></path>
      <path d="M435.14,303.08l-14.93-1.49c1.56-15.72,1.99-35.53-8.7-49.21l11.82-9.24C437.3,261.04,436.98,284.57,435.14,303.08z"></path>
      <path d="M319.41 462.6l-14.16-4.96c12.03-34.32 18.76-67.77 21.18-105.29.38-5.9.72-11.8 1.07-17.72 1.81-31.26 3.68-63.58 11.64-94.68 2.92-11.41 7.46-26.15 16.69-38.97 9.63-13.38 23.21-22.3 37.27-24.5 10.58-1.65 20.66.36 30.42 2.31 3.88.77 7.55 1.51 11.21 2.01 10.38 1.43 23.37.05 28.66-8.09l12.58 8.17c-7.74 11.91-23.92 17.44-43.28 14.78-4.11-.57-8.18-1.38-12.11-2.16-8.86-1.77-17.22-3.44-25.17-2.2-10.12 1.58-20.1 8.3-27.4 18.44-6.06 8.42-10.48 18.88-14.33 33.93-7.6 29.69-9.43 61.28-11.2 91.83-.34 5.95-.69 11.89-1.07 17.82C338.89 392.24 331.9 426.96 319.41 462.6zM487.63 483h-15c0-10.89-.38-18.96-.79-27.51-.4-8.37-.81-17.02-.81-28.33 0-1.55-.01-3.11-.01-4.69-.06-12.08-.11-24.56 2.79-36.46 2.36-9.69 6.29-18.91 12.35-28.99 5.04-8.39 11.16-17.55 18.72-28.01 3.33-4.61 8.47-7.58 14.11-8.16 5.57-.57 11.14 1.26 15.26 5.02 28.77 26.28 63.51 41.58 100.61 44.36 21.63-15.89 40.58-36.18 54.94-58.82l12.67 8.03c-15.85 25-36.96 47.33-61.03 64.55-1.4 1-3.09 1.49-4.8 1.39-40.98-2.4-80.93-19.6-112.49-48.43-1.33-1.21-2.83-1.26-3.61-1.18-.82.08-2.36.46-3.49 2.02-7.3 10.11-13.2 18.93-18.02 26.95-5.26 8.75-8.64 16.64-10.63 24.82-2.47 10.11-2.41 21.66-2.36 32.83.01 1.6.01 3.19.01 4.76 0 10.95.4 19.42.79 27.61C487.22 463.12 487.63 471.75 487.63 483z"></path><path d="M696.29,324.92c-1.91,0-3.75-0.73-5.15-2.04c-10.5-9.91-21.85-16.94-32.57-23.3c-1.82-1.08-3.1-2.87-3.52-4.94
			c-0.42-2.07,0.04-4.22,1.29-5.93c2.88-3.94,6.53-8.34,10.39-12.99c2.39-2.88,4.82-5.81,7.1-8.67c-3.77-2.03-6.82-5.09-8.64-8.78
			c-6.23-12.67,3.67-24.3,7.9-29.26c5.3-6.2,12.54-14.67,23.07-17.52c7.76-2.09,15.38-0.71,22.47,1.1
			c11.96,3.05,23.58,7.37,34.55,12.85c8.44,4.2,19.94,11.26,22.39,23.98c2.17,11.32-4,23.37-16.51,32.23c0,0,0,0,0,0
			c-11.2,7.93-23.48,11.62-34.97,10.57c-2.89,3.85-6.08,8.29-9.18,12.61c-4.39,6.1-8.93,12.42-12.72,17.25
			c-1.3,1.66-3.24,2.69-5.34,2.84C696.66,324.91,696.47,324.92,696.29,324.92z M673.51,291.07c7.16,4.43,14.49,9.34,21.7,15.37
			c2.42-3.28,5-6.87,7.52-10.38c4.18-5.81,8.5-11.82,12.17-16.54c1.81-2.32,4.8-3.37,7.66-2.69c0.25,0.06,0.49,0.11,0.74,0.15
			c8.37,1.46,18.23-1.31,27.1-7.58c5.58-3.96,11.66-10.82,10.45-17.17c-0.89-4.64-5.58-9.01-14.35-13.38
			c-10.02-5-20.64-8.95-31.57-11.74c-5.11-1.3-10.44-2.35-14.85-1.16c-5.6,1.51-10.37,6.68-15.57,12.77
			c-5.35,6.28-7.15,10.26-5.85,12.91c0.61,1.23,1.94,2.24,3.66,2.76c1.31,0.4,2.65,0.58,4.13,0.55c2.84-0.05,5.38,1.45,6.72,3.9
			c1.34,2.45,1.2,5.44-0.35,7.77c-3.98,5.94-9.34,12.41-14.54,18.67C676.63,287.27,675.02,289.21,673.51,291.07z"></path>
      <path d="M726.82 288.62l-12-9c.16-.21.32-.42.48-.62l.15-.19 11.82 9.24-.22.28C726.97 288.43 726.9 288.52 726.82 288.62zM613.32 327.03c-1.77 0-3.51-.63-4.89-1.81l-2.03-1.75c-14.39-12.39-25.75-22.17-42.66-28.75l5.43-13.98c18.73 7.28 31.37 17.9 45.68 30.21 3-1.23 5.52-2.5 8.14-3.82 2.91-1.47 5.92-2.99 9.72-4.54 11-4.48 18.76-9.18 24.4-14.78l10.57 10.64c-7.1 7.05-16.41 12.78-29.31 18.03-3.24 1.32-5.85 2.64-8.62 4.04-3.99 2.01-8.11 4.1-14.01 6.11C614.95 326.89 614.13 327.03 613.32 327.03zM471.35 184.79c-.16 0-.33-.01-.5-.02-11.21-.73-18.69-10.8-20.29-20.37-1.46-8.72.98-17.16 2.94-23.95 1.35-4.67 2.63-8.62 3.88-12.45 1.76-5.4 3.41-10.51 5.02-16.94 4.2-16.87 14.94-26.84 32.84-30.5 8.6-1.76 12.61-1.68 18.68-1.57 1.69.03 3.59.07 5.87.07 14.67 0 35.2 7.05 48.02 22.79 3.71 4.55 6.6 7.4 9.67 10.42 3.22 3.17 6.56 6.44 10.79 11.64 2.43 2.98 5.75 7.06 6.95 12.4 1.15 5.1.07 10.49-3.03 15.16-3.33 5.02-8.51 8.49-14.2 9.51-6.74 1.21-12.8-.71-18.14-2.41-2.87-.91-5.57-1.77-8.05-2.04-5.2-.58-11.15 1.23-17.7 5.39-3.43 2.18-6.69 4.73-10.13 7.43-2.83 2.22-5.76 4.51-8.87 6.65-6.7 4.6-12.81 5.7-18.15 3.28-7.7-3.49-9.08-12.21-9.59-15.5-.15-.97-.58-3.72-1.15-4.79-.35.1-.85.34-1.24.74-1.48 1.5-2.41 4.3-3.23 7.04-.96 3.19-2 6.86-3.03 11.99C477.99 182.29 474.9 184.79 471.35 184.79zM486.49 143.97c2.62 0 5.19.66 7.44 2.03 6.42 3.91 7.61 11.43 8.24 15.47.37 2.35.78 3.48 1.03 3.99.54-.15 1.61-.58 3.4-1.81 2.72-1.87 5.34-3.92 8.11-6.09 3.58-2.81 7.28-5.71 11.35-8.29 9.5-6.03 18.72-8.6 27.4-7.63 3.94.44 7.49 1.56 10.93 2.65 4.22 1.34 7.86 2.5 10.95 1.94 1.64-.3 3.31-1.46 4.36-3.04.8-1.21 1.13-2.52.89-3.58-.43-1.89-2.3-4.19-3.95-6.22-3.71-4.55-6.6-7.4-9.67-10.42-3.22-3.17-6.56-6.44-10.79-11.64-9.65-11.86-25.63-17.26-36.39-17.26-2.39 0-4.38-.04-6.15-.07-5.61-.11-8.42-.16-15.39 1.26-12.31 2.51-18.48 8.14-21.29 19.42-1.73 6.94-3.47 12.29-5.31 17.95-1.21 3.71-2.45 7.55-3.73 11.98-1.7 5.88-3.45 11.96-2.56 17.31.2 1.21.61 2.38 1.15 3.43.29-1.02.57-1.99.85-2.91 1.31-4.34 3.03-9.3 6.91-13.24C477.65 145.79 482.14 143.97 486.49 143.97z"></path><path d="M551.78 212.16l-11.22-9.96c5.28-5.95 7.4-14.57 9.63-23.7 2.65-10.8 5.38-21.97 13.64-30.75l10.92 10.28c-5.55 5.9-7.71 14.71-10 24.04C562.19 192.57 559.53 203.43 551.78 212.16zM507.65 237.11c-9.11-3.95-17.31-9.88-23.08-16.71-12.24-14.48-18.24-25.17-22.14-39.43l14.47-3.95c2.83 10.37 6.87 19.21 19.12 33.71 4.31 5.09 10.55 9.58 17.58 12.63L507.65 237.11zM429.07 256.49l-14.26-4.66c4.89-14.97 4.42-28.67 3.82-46.03-.21-6.18-.43-12.56-.43-19.58h15c0 6.76.22 13.01.42 19.06C434.24 223.38 434.78 239 429.07 256.49z"></path>
    </g>
</symbol>


<symbol id="betting" x="0px" y="0px"  viewBox="0 0 640 512" style="enable-background:new 0 0 24 24" xml:space="preserve">
    <title>betting</title>
    <g>
      <path d="M274.9 34.3c-28.1-28.1-73.7-28.1-101.8 0L34.3 173.1c-28.1 28.1-28.1 73.7 0 101.8L173.1 413.7c28.1 28.1 73.7 28.1 101.8 0L413.7 274.9c28.1-28.1 28.1-73.7 0-101.8L274.9 34.3zM200 224a24 24 0 1 1 48 0 24 24 0 1 1 -48 0zM96 200a24 24 0 1 1 0 48 24 24 0 1 1 0-48zM224 376a24 24 0 1 1 0-48 24 24 0 1 1 0 48zM352 200a24 24 0 1 1 0 48 24 24 0 1 1 0-48zM224 120a24 24 0 1 1 0-48 24 24 0 1 1 0 48zm96 328c0 35.3 28.7 64 64 64H576c35.3 0 64-28.7 64-64V256c0-35.3-28.7-64-64-64H461.7c11.6 36 3.1 77-25.4 105.5L320 413.8V448zM480 328a24 24 0 1 1 0 48 24 24 0 1 1 0-48z"/>
    </g>
</symbol>


<symbol id="arrow-right" x="0px" y="0px"  viewBox="0 0 24 24" style="enable-background:new 0 0 24 24" xml:space="preserve">
    <title>arrow-right</title>
    <g>
	   <path d="M23.12,9.91,19.25,6a1,1,0,0,0-1.42,0h0a1,1,0,0,0,0,1.41L21.39,11H1a1,1,0,0,0-1,1H0a1,1,0,0,0,1,1H21.45l-3.62,3.61a1,1,0,0,0,0,1.42h0a1,1,0,0,0,1.42,0l3.87-3.88A3,3,0,0,0,23.12,9.91Z"/>
    </g>
</symbol>

<!-- <symbol id="google" x="0px" y="0px"  viewBox="0 0 32 32" style="enable-background:new 0 0 32 32" xml:space="preserve">
    <title>google</title>
    <g>
	    <rect width="40px" height="40px" fill="#F2F2F2"/>
      <g clip-path="url(#clip0_710_6227)">
      <path d="M29.6 20.2273C29.6 19.5182 29.5364 18.8364 29.4182 18.1818H20V22.05H25.3818C25.15 23.3 24.4455 24.3591 23.3864 25.0682V27.5773H26.6182C28.5091 25.8364 29.6 23.2727 29.6 20.2273Z" fill="#4285F4"/>
      <path d="M20 30C22.7 30 24.9636 29.1045 26.6181 27.5773L23.3863 25.0682C22.4909 25.6682 21.3454 26.0227 20 26.0227C17.3954 26.0227 15.1909 24.2636 14.4045 21.9H11.0636V24.4909C12.7091 27.7591 16.0909 30 20 30Z" fill="#34A853"/>
      <path d="M14.4045 21.9C14.2045 21.3 14.0909 20.6591 14.0909 20C14.0909 19.3409 14.2045 18.7 14.4045 18.1V15.5091H11.0636C10.3864 16.8591 10 18.3864 10 20C10 21.6136 10.3864 23.1409 11.0636 24.4909L14.4045 21.9Z" fill="#FBBC04"/>
      <path d="M20 13.9773C21.4681 13.9773 22.7863 14.4818 23.8227 15.4727L26.6909 12.6045C24.9591 10.9909 22.6954 10 20 10C16.0909 10 12.7091 12.2409 11.0636 15.5091L14.4045 18.1C15.1909 15.7364 17.3954 13.9773 20 13.9773Z" fill="#E94235"/>
    </g>
    <defs>
    <clipPath id="clip0_710_6227">
    <rect width="20" height="20" fill="white" transform="translate(10 10)"/>
    </g>
</symbol> -->

<symbol id="google" x="0px" y="0px"  viewBox="0 0 32 32" style="enable-background:new 0 0 24 24" xml:space="preserve">
    <title>google</title>
   <g clip-path="url(#clip0_710_6227)">
    <path d="M29.6 20.2273C29.6 19.5182 29.5364 18.8364 29.4182 18.1818H20V22.05H25.3818C25.15 23.3 24.4455 24.3591 23.3864 25.0682V27.5773H26.6182C28.5091 25.8364 29.6 23.2727 29.6 20.2273Z" fill="#4285F4"/>
    <path d="M20 30C22.7 30 24.9636 29.1045 26.6181 27.5773L23.3863 25.0682C22.4909 25.6682 21.3454 26.0227 20 26.0227C17.3954 26.0227 15.1909 24.2636 14.4045 21.9H11.0636V24.4909C12.7091 27.7591 16.0909 30 20 30Z" fill="#34A853"/>
    <path d="M14.4045 21.9C14.2045 21.3 14.0909 20.6591 14.0909 20C14.0909 19.3409 14.2045 18.7 14.4045 18.1V15.5091H11.0636C10.3864 16.8591 10 18.3864 10 20C10 21.6136 10.3864 23.1409 11.0636 24.4909L14.4045 21.9Z" fill="#FBBC04"/>
    <path d="M20 13.9773C21.4681 13.9773 22.7863 14.4818 23.8227 15.4727L26.6909 12.6045C24.9591 10.9909 22.6954 10 20 10C16.0909 10 12.7091 12.2409 11.0636 15.5091L14.4045 18.1C15.1909 15.7364 17.3954 13.9773 20 13.9773Z" fill="#E94235"/>
  </g>
</symbol>

<symbol id="<!-- title/name goes her -->" x="0px" y="0px"  viewBox="0 0 24 24" style="enable-background:new 0 0 24 24" xml:space="preserve">
    <title><!--title goes her--></title>
    <g>
	    <!-- Path goes her -->
    </g>
</symbol>

</svg>
