<svg xmlns="http://www.w3.org/2000/svg" viewBox="0 0 24 24" id="notifications">
  <path d="M12 24c1.104.002 1.998-.89 2-1.994-.002-1.105-.896-1.998-2-2-1.104-.002-1.998.89-2 1.994.002 1.105.896 1.998 2 2zM19.292 16c-.396 0-.708-.314-.708-.707V11c0-3.309-2.207-6.116-5.281-7.055-.124-.104-.278-.164-.439-.164h-2.268c-.161 0-.315.06-.439.164C7.207 4.884 5 7.691 5 11v4.293c0 .393-.312.707-.708.707-1.018 0-1.785.678-1.785 1.464C2.506 18.582 5.574 21 12 21c6.426 0 9.494-2.418 9.494-3.536 0-.786-.767-1.464-1.785-1.464h-.417z"/>
</svg>
