<svg xmlns="http://www.w3.org/2000/svg" enable-background="new 0 0 1024 1024" viewBox="0 0 1024 1024" id="boxing">
<path d="M364.61,678.36c-22.57,0-44.86-1.52-66.57-4.55c-4.2-0.59-7.97-2.94-10.35-6.45c-2.38-3.52-3.17-7.9-2.16-12.03
			c7.24-29.47,7.37-60.61,7.5-90.73c0.15-35.63,0.31-72.48,12.21-106.93c0.7-2.03,2.24-3.66,4.22-4.48
			c1.98-0.82,4.22-0.75,6.15,0.18c39.03,18.97,74,32.15,117.81,34.85c14.85,0.91,33.42-1.26,41.02-10.12
			c1.43-1.67,3.52-2.65,5.71-2.62c2.19,0,4.28,0.97,5.7,2.64c3.6,4.24,7.41,8.6,11.1,12.82c16.37,18.75,33.29,38.14,44.79,60.09
			c13.84,26.43,22.09,52.23,24.53,76.69c0.46,4.6-1.1,9.17-4.29,12.51c-3.2,3.36-7.7,5.17-12.36,4.94
			c-16.41-0.8-33.55,4.61-49.7,10.23l-1.63,0.57c-19.01,6.62-38.67,13.47-59.35,12c-5.31-0.38-9.83-4.08-11.25-9.22
			c-3.57-12.92-8.72-25.64-14.06-38.05c-3.49,13.62-5.2,28.88-4.78,43.57c0.19,6.87-5,12.6-11.84,13.03
			C386.16,678.01,375.36,678.36,364.61,678.36z M316.88,470.62c-8.57,29.72-8.7,61.05-8.84,94.05c-0.13,30.99-0.27,63.04-7.93,94.24
			c30.35,4.27,61.85,5.46,93.7,3.58c-0.31-20.96,3.3-42.86,10-60.44c0.67-1.75,1.96-3.18,3.63-4.02c3.94-1.99,8.88-1.17,12.3,2.04
			c2.15,2.02,3.19,4.41,3.88,5.99c6.58,15.11,13.38,30.71,18.06,47.06c17.07,0.76,34.65-5.37,51.67-11.3l1.64-0.57
			c17.54-6.1,36.27-11.98,55.36-11.05c0.3,0.02,0.56-0.08,0.76-0.29c0.27-0.29,0.24-0.59,0.23-0.69
			c-2.24-22.54-9.95-46.5-22.89-71.22c-10.67-20.38-27-39.09-42.8-57.18c-2.06-2.36-4.17-4.77-6.26-7.19
			c-14.73,10.2-37,10.17-46.89,9.56C389.21,500.53,354.44,488.34,316.88,470.62z"></path><path d="M266.59 825.71c-.25-3.37-.5-6.67-.75-9.9-2.56-33.66-4.58-60.25.5-91.56 3.77-23.28 14-42.67 25.04-62.13l13.04 7.41c-10.34 18.22-19.91 36.3-23.28 57.13-4.79 29.56-2.83 55.36-.35 88.03.25 3.25.5 6.56.75 9.94L266.59 825.71zM313.12 831.02l-14.09-5.15c11.18-30.61 21.18-71.55 24.31-99.56.09-.84.18-1.69.27-2.53.6-5.73 1.23-11.65 3.42-17.55 2.43-6.54 6.39-12 10.22-17.28 4.72-6.51 8.8-12.13 9.15-18.37l14.98.85c-.6 10.63-6.65 18.97-11.99 26.33-3.39 4.67-6.58 9.08-8.3 13.7-1.54 4.13-2.04 8.88-2.56 13.9-.09.88-.18 1.75-.28 2.63C334.95 757.51 324.85 798.91 313.12 831.02z"></path><path d="M287.36 928.89c-6.05 0-12.43-1.41-18.64-4.17-8.46-3.76-14.63-9.24-17.85-15.85-3.03-6.22-3.68-13.86-1.88-22.1 1.1-5.03 2.91-9.63 4.65-14.07.47-1.19.93-2.38 1.38-3.57 5.03-13.33 7.84-27.12 8.13-39.88.1-4.28 2.49-8.21 6.25-10.26 3.8-2.07 8.26-1.97 11.94.28 3.58 2.19 6.31 3.41 8.86 3.96 3.22.7 6.31.3 7.86-1.01 0 0 0 0 0 0 2.64-2.23 6.23-3.05 9.6-2.19 3.42.87 6.23 3.35 7.5 6.63 5.6 14.42 10.19 29.91 5.86 45.51-.54 1.96-1.2 3.79-1.83 5.56-.98 2.73-1.9 5.31-2.11 7.64-.2 2.16.16 4.69.53 7.36.51 3.66 1.1 7.81.44 12.23-1.54 10.34-9.94 19.42-20.89 22.59C294.08 928.45 290.77 928.89 287.36 928.89zM277.94 834.54c-.85 12.99-3.89 26.67-8.87 39.88-.47 1.25-.96 2.5-1.45 3.75-1.6 4.08-3.11 7.94-3.96 11.81-.75 3.42-1.23 8.33.71 12.31 2.09 4.29 6.85 7.11 10.46 8.72 6.49 2.88 12.95 3.64 18.2 2.12 5.34-1.54 9.54-5.82 10.22-10.39.34-2.27-.05-5.02-.46-7.93-.46-3.25-.97-6.93-.61-10.82.39-4.21 1.73-7.98 2.92-11.31.57-1.59 1.1-3.09 1.5-4.53 2.76-9.94.15-20.87-3.67-31.48-4.59 2.01-10.13 2.46-15.88 1.22C283.65 837.15 280.59 835.89 277.94 834.54zM641.31 945.04c-1.92 0-3.59-.14-4.84-.29-14.67-1.76-27.97-7.74-40.83-13.53-12.81-5.76-24.91-11.21-37.76-12.43-1.03-.1-2.07-.17-3.11-.25-5.92-.43-12.63-.92-18.57-5.04-10.65-7.39-13.05-21.96-6.76-41.03 2.52-7.64 3.16-15.15 2.01-23.65-.52-3.82.71-7.6 3.36-10.38 2.63-2.75 6.32-4.14 10.12-3.8h0c11.65 1.04 18.46.12 26.02-3.51 3.31-1.59 7.13-1.66 10.49-.19 3.34 1.47 5.86 4.31 6.92 7.81 7.18 23.68 27.89 46.34 55.4 60.6.77.4 1.55.79 2.33 1.19 5.71 2.87 12.18 6.13 16.73 12.73 2.92 4.24 4.22 9.17 3.65 13.89-.85 7.11-5.29 12.65-12.51 15.59C649.52 944.55 644.95 945.04 641.31 945.04zM546.65 849.82c.91 9.55-.06 18.52-2.97 27.34-1.46 4.44-5.72 19.3 1.07 24.01 2.57 1.78 6.71 2.08 11.11 2.41 1.16.08 2.31.17 3.45.28 15.31 1.46 29.12 7.68 42.48 13.69 12.38 5.57 24.07 10.83 36.47 12.31 3.67.44 7.42.06 10.04-1.01 3.01-1.23 3.19-2.75 3.28-3.48.13-1.08-.28-2.39-1.11-3.6-2.37-3.44-6.43-5.48-11.12-7.84-.83-.42-1.67-.84-2.49-1.27-30.01-15.55-52.97-40.39-61.98-66.86C565.29 849.85 556.45 850.47 546.65 849.82z"></path><path d="M582.98 838.96l-14.97-.95c4.16-65.85 4.03-84.61-.79-111.54-.65-3.66-1.62-7.22-2.64-11-1.75-6.5-3.57-13.21-3.81-20.67-.11-3.44-.03-6.84.05-10.12.12-5.1.23-9.93-.34-14.58-1.28-10.4-6.34-20.54-13.9-27.84L557 631.47c10.14 9.78 16.66 22.85 18.37 36.81.7 5.74.57 11.34.44 16.76-.08 3.22-.15 6.27-.05 9.29.18 5.71 1.69 11.31 3.29 17.24 1.06 3.92 2.15 7.97 2.92 12.26C587.02 751.92 587.19 772.37 582.98 838.96zM534.03 843.69c-3.94-28.75-10.48-49.93-19.28-76.72-6.58-20.04-13.58-46.31-9.2-71.77.66-3.83-.84-7.68-3.92-10.05-9.59-7.35-17.66-17.32-23.32-28.83l13.46-6.62c4.65 9.45 11.22 17.59 18.99 23.54 7.52 5.76 11.19 15.15 9.58 24.5-3.82 22.2 2.63 46.16 8.67 64.54 9.05 27.54 15.77 49.36 19.89 79.36L534.03 843.69zM489.15 335.76c-.43 0-.87-.03-1.31-.09-2.38-.35-4.48-1.6-5.9-3.54-9.78-13.28-18.23-26.03-25.85-38.97-2.44-4.14-1.09-9.58 2.99-12.11 9.76-6.06 18.99-12.19 26.41-17.12 2.19-1.46 4.25-2.82 6.16-4.08 3.03-11.54 6.66-24.24 13.77-35.24 9.14-14.14 23.02-22.92 37.13-23.48 12.05-.49 24.67 5.03 34.6 15.11 8.48 8.62 14.08 19.26 18.86 29.47 4.12 8.78 8 18.26 6.33 29.07-.96 6.23-3.91 11.74-8.31 15.53-8.48 7.31-18.57 6.08-26.67 5.08-2.7-.33-5.26-.65-7.6-.66-9.89-.08-19.37 5.32-28.14 11.18l-37.12 28.05C492.94 335.14 491.08 335.76 489.15 335.76zM472.05 290.61c5.58 9.16 11.63 18.29 18.35 27.65l32.35-24.45c.11-.09.23-.17.35-.25 10.29-6.89 22.74-13.91 36.76-13.83 3.21.02 6.33.4 9.33.77 7.19.88 11.76 1.28 15.04-1.55 1.7-1.46 2.86-3.76 3.28-6.47 1.03-6.64-1.82-13.44-5.08-20.41-4.22-9.01-9.08-18.31-15.98-25.32-6.96-7.08-15.45-10.95-23.3-10.64-10.88.44-20.12 8.88-25.14 16.64-6.38 9.87-9.54 21.97-12.59 33.67-.47 1.81-1.6 3.37-3.16 4.39-2.51 1.64-5.36 3.53-8.48 5.6C487.58 280.55 480.1 285.52 472.05 290.61z"></path><path d="M392.79,378.33c-9.35,0-18.16-5.1-22.63-13.9c-19.26-37.91-38.9-82.72-27.98-134.95l14.68,3.07
			c-9.92,47.47,8.56,89.46,26.67,125.09c2.48,4.89,8.29,6.97,13.51,4.84c5.78-2.36,11.69-3.72,17.4-5.03
			c1.94-0.45,3.87-0.89,5.77-1.37c23.49-5.94,45.16-19.3,61.02-37.62l11.34,9.82c-17.85,20.62-42.24,35.66-68.69,42.35
			c-2.03,0.51-4.1,0.99-6.09,1.45c-5.37,1.23-10.44,2.4-15.1,4.3C399.45,377.69,396.08,378.33,392.79,378.33z"></path><path d="M390.07,313.13l-5.48-13.96c11.79-4.63,24.15-5.23,36.1-5.81c1.97-0.1,3.94-0.19,5.91-0.31
			c11.63-0.68,24.78-2.32,34.06-9.37l9.07,11.95c-12.49,9.48-28.37,11.59-42.25,12.4c-2.01,0.12-4.03,0.22-6.05,0.31
			C410.18,308.89,399.57,309.4,390.07,313.13z"></path><path d="M435.14,303.08l-14.93-1.49c1.56-15.72,1.99-35.53-8.7-49.21l11.82-9.24C437.3,261.04,436.98,284.57,435.14,303.08z"></path><path d="M319.41 462.6l-14.16-4.96c12.03-34.32 18.76-67.77 21.18-105.29.38-5.9.72-11.8 1.07-17.72 1.81-31.26 3.68-63.58 11.64-94.68 2.92-11.41 7.46-26.15 16.69-38.97 9.63-13.38 23.21-22.3 37.27-24.5 10.58-1.65 20.66.36 30.42 2.31 3.88.77 7.55 1.51 11.21 2.01 10.38 1.43 23.37.05 28.66-8.09l12.58 8.17c-7.74 11.91-23.92 17.44-43.28 14.78-4.11-.57-8.18-1.38-12.11-2.16-8.86-1.77-17.22-3.44-25.17-2.2-10.12 1.58-20.1 8.3-27.4 18.44-6.06 8.42-10.48 18.88-14.33 33.93-7.6 29.69-9.43 61.28-11.2 91.83-.34 5.95-.69 11.89-1.07 17.82C338.89 392.24 331.9 426.96 319.41 462.6zM487.63 483h-15c0-10.89-.38-18.96-.79-27.51-.4-8.37-.81-17.02-.81-28.33 0-1.55-.01-3.11-.01-4.69-.06-12.08-.11-24.56 2.79-36.46 2.36-9.69 6.29-18.91 12.35-28.99 5.04-8.39 11.16-17.55 18.72-28.01 3.33-4.61 8.47-7.58 14.11-8.16 5.57-.57 11.14 1.26 15.26 5.02 28.77 26.28 63.51 41.58 100.61 44.36 21.63-15.89 40.58-36.18 54.94-58.82l12.67 8.03c-15.85 25-36.96 47.33-61.03 64.55-1.4 1-3.09 1.49-4.8 1.39-40.98-2.4-80.93-19.6-112.49-48.43-1.33-1.21-2.83-1.26-3.61-1.18-.82.08-2.36.46-3.49 2.02-7.3 10.11-13.2 18.93-18.02 26.95-5.26 8.75-8.64 16.64-10.63 24.82-2.47 10.11-2.41 21.66-2.36 32.83.01 1.6.01 3.19.01 4.76 0 10.95.4 19.42.79 27.61C487.22 463.12 487.63 471.75 487.63 483z"></path><path d="M696.29,324.92c-1.91,0-3.75-0.73-5.15-2.04c-10.5-9.91-21.85-16.94-32.57-23.3c-1.82-1.08-3.1-2.87-3.52-4.94
			c-0.42-2.07,0.04-4.22,1.29-5.93c2.88-3.94,6.53-8.34,10.39-12.99c2.39-2.88,4.82-5.81,7.1-8.67c-3.77-2.03-6.82-5.09-8.64-8.78
			c-6.23-12.67,3.67-24.3,7.9-29.26c5.3-6.2,12.54-14.67,23.07-17.52c7.76-2.09,15.38-0.71,22.47,1.1
			c11.96,3.05,23.58,7.37,34.55,12.85c8.44,4.2,19.94,11.26,22.39,23.98c2.17,11.32-4,23.37-16.51,32.23c0,0,0,0,0,0
			c-11.2,7.93-23.48,11.62-34.97,10.57c-2.89,3.85-6.08,8.29-9.18,12.61c-4.39,6.1-8.93,12.42-12.72,17.25
			c-1.3,1.66-3.24,2.69-5.34,2.84C696.66,324.91,696.47,324.92,696.29,324.92z M673.51,291.07c7.16,4.43,14.49,9.34,21.7,15.37
			c2.42-3.28,5-6.87,7.52-10.38c4.18-5.81,8.5-11.82,12.17-16.54c1.81-2.32,4.8-3.37,7.66-2.69c0.25,0.06,0.49,0.11,0.74,0.15
			c8.37,1.46,18.23-1.31,27.1-7.58c5.58-3.96,11.66-10.82,10.45-17.17c-0.89-4.64-5.58-9.01-14.35-13.38
			c-10.02-5-20.64-8.95-31.57-11.74c-5.11-1.3-10.44-2.35-14.85-1.16c-5.6,1.51-10.37,6.68-15.57,12.77
			c-5.35,6.28-7.15,10.26-5.85,12.91c0.61,1.23,1.94,2.24,3.66,2.76c1.31,0.4,2.65,0.58,4.13,0.55c2.84-0.05,5.38,1.45,6.72,3.9
			c1.34,2.45,1.2,5.44-0.35,7.77c-3.98,5.94-9.34,12.41-14.54,18.67C676.63,287.27,675.02,289.21,673.51,291.07z"></path><path d="M726.82 288.62l-12-9c.16-.21.32-.42.48-.62l.15-.19 11.82 9.24-.22.28C726.97 288.43 726.9 288.52 726.82 288.62zM613.32 327.03c-1.77 0-3.51-.63-4.89-1.81l-2.03-1.75c-14.39-12.39-25.75-22.17-42.66-28.75l5.43-13.98c18.73 7.28 31.37 17.9 45.68 30.21 3-1.23 5.52-2.5 8.14-3.82 2.91-1.47 5.92-2.99 9.72-4.54 11-4.48 18.76-9.18 24.4-14.78l10.57 10.64c-7.1 7.05-16.41 12.78-29.31 18.03-3.24 1.32-5.85 2.64-8.62 4.04-3.99 2.01-8.11 4.1-14.01 6.11C614.95 326.89 614.13 327.03 613.32 327.03zM471.35 184.79c-.16 0-.33-.01-.5-.02-11.21-.73-18.69-10.8-20.29-20.37-1.46-8.72.98-17.16 2.94-23.95 1.35-4.67 2.63-8.62 3.88-12.45 1.76-5.4 3.41-10.51 5.02-16.94 4.2-16.87 14.94-26.84 32.84-30.5 8.6-1.76 12.61-1.68 18.68-1.57 1.69.03 3.59.07 5.87.07 14.67 0 35.2 7.05 48.02 22.79 3.71 4.55 6.6 7.4 9.67 10.42 3.22 3.17 6.56 6.44 10.79 11.64 2.43 2.98 5.75 7.06 6.95 12.4 1.15 5.1.07 10.49-3.03 15.16-3.33 5.02-8.51 8.49-14.2 9.51-6.74 1.21-12.8-.71-18.14-2.41-2.87-.91-5.57-1.77-8.05-2.04-5.2-.58-11.15 1.23-17.7 5.39-3.43 2.18-6.69 4.73-10.13 7.43-2.83 2.22-5.76 4.51-8.87 6.65-6.7 4.6-12.81 5.7-18.15 3.28-7.7-3.49-9.08-12.21-9.59-15.5-.15-.97-.58-3.72-1.15-4.79-.35.1-.85.34-1.24.74-1.48 1.5-2.41 4.3-3.23 7.04-.96 3.19-2 6.86-3.03 11.99C477.99 182.29 474.9 184.79 471.35 184.79zM486.49 143.97c2.62 0 5.19.66 7.44 2.03 6.42 3.91 7.61 11.43 8.24 15.47.37 2.35.78 3.48 1.03 3.99.54-.15 1.61-.58 3.4-1.81 2.72-1.87 5.34-3.92 8.11-6.09 3.58-2.81 7.28-5.71 11.35-8.29 9.5-6.03 18.72-8.6 27.4-7.63 3.94.44 7.49 1.56 10.93 2.65 4.22 1.34 7.86 2.5 10.95 1.94 1.64-.3 3.31-1.46 4.36-3.04.8-1.21 1.13-2.52.89-3.58-.43-1.89-2.3-4.19-3.95-6.22-3.71-4.55-6.6-7.4-9.67-10.42-3.22-3.17-6.56-6.44-10.79-11.64-9.65-11.86-25.63-17.26-36.39-17.26-2.39 0-4.38-.04-6.15-.07-5.61-.11-8.42-.16-15.39 1.26-12.31 2.51-18.48 8.14-21.29 19.42-1.73 6.94-3.47 12.29-5.31 17.95-1.21 3.71-2.45 7.55-3.73 11.98-1.7 5.88-3.45 11.96-2.56 17.31.2 1.21.61 2.38 1.15 3.43.29-1.02.57-1.99.85-2.91 1.31-4.34 3.03-9.3 6.91-13.24C477.65 145.79 482.14 143.97 486.49 143.97z"></path><path d="M551.78 212.16l-11.22-9.96c5.28-5.95 7.4-14.57 9.63-23.7 2.65-10.8 5.38-21.97 13.64-30.75l10.92 10.28c-5.55 5.9-7.71 14.71-10 24.04C562.19 192.57 559.53 203.43 551.78 212.16zM507.65 237.11c-9.11-3.95-17.31-9.88-23.08-16.71-12.24-14.48-18.24-25.17-22.14-39.43l14.47-3.95c2.83 10.37 6.87 19.21 19.12 33.71 4.31 5.09 10.55 9.58 17.58 12.63L507.65 237.11zM429.07 256.49l-14.26-4.66c4.89-14.97 4.42-28.67 3.82-46.03-.21-6.18-.43-12.56-.43-19.58h15c0 6.76.22 13.01.42 19.06C434.24 223.38 434.78 239 429.07 256.49z"></path>
      </svg>
