<svg xmlns="http://www.w3.org/2000/svg" width="47.162" height="47.999" viewBox="0 0 47.162 47.999">
  <g>
    <path d="M31.846,0A15.332,15.332,0,0,0,16.532,15.314c0,.059.006.117.009.176-.406-.033-.813-.063-1.227-.063A15.331,15.331,0,0,0,0,30.741V47.272a.727.727,0,0,0,.384.641A.711.711,0,0,0,.728,48a.731.731,0,0,0,.4-.121L7.3,43.784A15.309,15.309,0,0,0,30.629,30.741c0-.061-.009-.119-.01-.18.4.039.813.066,1.228.066a15.238,15.238,0,0,0,8.017-2.271l6.168,4.1a.734.734,0,0,0,.4.121.714.714,0,0,0,.344-.086.729.729,0,0,0,.384-.641V15.313A15.335,15.335,0,0,0,31.846,0ZM15.314,44.6A13.8,13.8,0,0,1,7.69,42.31a.73.73,0,0,0-.8,0L1.454,45.917V30.741A13.859,13.859,0,1,1,15.314,44.6ZM45.705,30.49l-5.433-3.6a.72.72,0,0,0-.4-.123.727.727,0,0,0-.4.121,13.79,13.79,0,0,1-7.624,2.291,12.078,12.078,0,0,1-1.311-.08A15.334,15.334,0,0,0,18,15.68c-.007-.121-.019-.242-.019-.365a13.86,13.86,0,0,1,27.719,0V30.49Z" fill="#1a171b"/>
    <path d="M23.072,30.013H15.313a.728.728,0,1,0,0,1.456h7.759a.728.728,0,0,0,0-1.456Z" fill="#1a171b"/>
    <path d="M7.556,31.468h3.878a.728.728,0,0,0,0-1.456H7.556a.728.728,0,1,0,0,1.456Z" fill="#1a171b"/>
    <path d="M23.072,23.226H19.581a.727.727,0,1,0,0,1.454h3.491a.727.727,0,0,0,0-1.454Z" fill="#1a171b"/>
    <path d="M7.556,24.679H15.7a.727.727,0,0,0,0-1.454H7.556a.727.727,0,1,0,0,1.454Z" fill="#1a171b"/>
    <path d="M19.192,36.8H7.556a.728.728,0,1,0,0,1.456H19.192a.728.728,0,1,0,0-1.456Z" fill="#1a171b"/>
    <path d="M33.543,15.314a.729.729,0,0,0-.728-.727H26.027a.727.727,0,1,0,0,1.454h6.788A.727.727,0,0,0,33.543,15.314Z" fill="#1a171b"/>
    <path d="M39.6,14.587H36.7a.727.727,0,1,0,0,1.454H39.6a.727.727,0,0,0,0-1.454Z" fill="#1a171b"/>
    <path d="M29.178,8.525A.728.728,0,0,0,28.45,7.8H24.088a.728.728,0,1,0,0,1.456H28.45A.729.729,0,0,0,29.178,8.525Z" fill="#1a171b"/>
    <path d="M39.6,7.8H32.33a.728.728,0,0,0,0,1.456H39.6a.728.728,0,0,0,0-1.456Z" fill="#1a171b"/>
    <path d="M39.6,21.376H31.847a.727.727,0,1,0,0,1.454H39.6a.727.727,0,0,0,0-1.454Z" fill="#1a171b"/>
  </g>
</svg>
