<svg xmlns="http://www.w3.org/2000/svg" xmlns:xlink="http://www.w3.org/1999/xlink" width="24" zoomAndPan="magnify" viewBox="0 0 375 375" height="24" preserveAspectRatio="xMidYMid meet" version="1.0"><defs><g/><clipPath id="9a2c082070"><path d="M 98.789062 252.8125 L 287.351562 252.8125 L 287.351562 255.667969 L 98.789062 255.667969 Z M 98.789062 252.8125 " clip-rule="nonzero"/></clipPath><clipPath id="73538a8e23"><path d="M 98.789062 222.171875 L 287.351562 222.171875 L 287.351562 225.027344 L 98.789062 225.027344 Z M 98.789062 222.171875 " clip-rule="nonzero"/></clipPath></defs><g fill="#126031" fill-opacity="1"><g transform="translate(110.399122, 148.445228)"><g><path d="M 3.34375 -42.9375 L 19.921875 -42.9375 L 19.921875 -38.640625 L 9.328125 -38.640625 L 9.328125 -24.328125 L 17.546875 -24.328125 L 17.546875 -20.09375 L 9.328125 -20.09375 L 9.328125 0 L 3.34375 0 Z M 3.34375 -42.9375 "/></g></g></g><g fill="#126031" fill-opacity="1"><g transform="translate(131.117895, 148.445228)"><g><path d="M 3.34375 -42.9375 L 11.984375 -42.9375 C 16.328125 -42.9375 19.515625 -42.039062 21.546875 -40.25 C 23.578125 -38.46875 24.59375 -35.5625 24.59375 -31.53125 C 24.59375 -26.019531 22.828125 -22.679688 19.296875 -21.515625 L 25.390625 0 L 19.609375 0 L 13.984375 -20.140625 L 9.328125 -20.140625 L 9.328125 0 L 3.34375 0 Z M 11.609375 -24.4375 C 14.179688 -24.4375 16.023438 -24.945312 17.140625 -25.96875 C 18.253906 -26.988281 18.8125 -28.84375 18.8125 -31.53125 C 18.8125 -33.300781 18.617188 -34.6875 18.234375 -35.6875 C 17.847656 -36.695312 17.160156 -37.441406 16.171875 -37.921875 C 15.179688 -38.398438 13.785156 -38.640625 11.984375 -38.640625 L 9.328125 -38.640625 L 9.328125 -24.4375 Z M 11.609375 -24.4375 "/></g></g></g><g fill="#126031" fill-opacity="1"><g transform="translate(158.619287, 148.445228)"><g><path d="M 3.65625 -42.9375 L 9.546875 -42.9375 L 9.546875 0 L 3.65625 0 Z M 3.65625 -42.9375 "/></g></g></g><g fill="#126031" fill-opacity="1"><g transform="translate(171.760606, 148.445228)"><g><path d="M 3.34375 -42.9375 L 19.984375 -42.9375 L 19.984375 -38.484375 L 9.328125 -38.484375 L 9.328125 -24.28125 L 17.96875 -24.28125 L 17.96875 -20.03125 L 9.328125 -20.03125 L 9.328125 -4.296875 L 20.09375 -4.296875 L 20.09375 0 L 3.34375 0 Z M 3.34375 -42.9375 "/></g></g></g><g fill="#126031" fill-opacity="1"><g transform="translate(193.327214, 148.445228)"><g><path d="M 3.34375 -42.9375 L 7.421875 -42.9375 L 19.609375 -14.421875 L 19.609375 -42.9375 L 24.59375 -42.9375 L 24.59375 0 L 20.78125 0 L 8.421875 -29.3125 L 8.421875 0 L 3.34375 0 Z M 3.34375 -42.9375 "/></g></g></g><g fill="#126031" fill-opacity="1"><g transform="translate(221.305521, 148.445228)"><g><path d="M 3.34375 -42.9375 L 12.671875 -42.9375 C 17.296875 -42.9375 20.570312 -41.875 22.5 -39.75 C 24.425781 -37.625 25.390625 -34.320312 25.390625 -29.84375 L 25.390625 -14.046875 C 25.390625 -9.304688 24.441406 -5.78125 22.546875 -3.46875 C 20.660156 -1.15625 17.523438 0 13.140625 0 L 3.34375 0 Z M 12.71875 -4.296875 C 14.800781 -4.296875 16.3125 -4.703125 17.25 -5.515625 C 18.1875 -6.328125 18.769531 -7.429688 19 -8.828125 C 19.226562 -10.222656 19.34375 -12.332031 19.34375 -15.15625 L 19.34375 -29.09375 C 19.34375 -31.53125 19.191406 -33.394531 18.890625 -34.6875 C 18.585938 -35.976562 17.957031 -36.929688 17 -37.546875 C 16.050781 -38.171875 14.570312 -38.484375 12.5625 -38.484375 L 9.328125 -38.484375 L 9.328125 -4.296875 Z M 12.71875 -4.296875 "/></g></g></g><g fill="#126031" fill-opacity="1"><g transform="translate(249.23083, 148.445228)"><g><path d="M 13.46875 0.484375 C 9.863281 0.484375 7.113281 -0.628906 5.21875 -2.859375 C 3.332031 -5.085938 2.28125 -8.144531 2.0625 -12.03125 L 7.359375 -13.46875 C 7.535156 -10.707031 8.070312 -8.476562 8.96875 -6.78125 C 9.875 -5.082031 11.375 -4.234375 13.46875 -4.234375 C 15.019531 -4.234375 16.191406 -4.664062 16.984375 -5.53125 C 17.773438 -6.40625 18.171875 -7.65625 18.171875 -9.28125 C 18.171875 -11.039062 17.800781 -12.503906 17.0625 -13.671875 C 16.320312 -14.835938 15.140625 -16.128906 13.515625 -17.546875 L 6.3125 -23.90625 C 4.863281 -25.175781 3.8125 -26.539062 3.15625 -28 C 2.5 -29.46875 2.171875 -31.265625 2.171875 -33.390625 C 2.171875 -36.535156 3.070312 -38.972656 4.875 -40.703125 C 6.675781 -42.429688 9.132812 -43.296875 12.25 -43.296875 C 15.632812 -43.296875 18.191406 -42.394531 19.921875 -40.59375 C 21.660156 -38.789062 22.707031 -36 23.0625 -32.21875 L 17.96875 -30.84375 C 17.789062 -33.351562 17.300781 -35.285156 16.5 -36.640625 C 15.707031 -38.003906 14.289062 -38.6875 12.25 -38.6875 C 10.726562 -38.6875 9.5625 -38.289062 8.75 -37.5 C 7.9375 -36.707031 7.53125 -35.53125 7.53125 -33.96875 C 7.53125 -32.695312 7.738281 -31.628906 8.15625 -30.765625 C 8.582031 -29.898438 9.304688 -29.023438 10.328125 -28.140625 L 17.59375 -21.78125 C 19.46875 -20.125 20.960938 -18.320312 22.078125 -16.375 C 23.191406 -14.4375 23.75 -12.226562 23.75 -9.75 C 23.75 -6.601562 22.789062 -4.109375 20.875 -2.265625 C 18.96875 -0.429688 16.5 0.484375 13.46875 0.484375 Z M 13.46875 0.484375 "/></g></g></g><g fill="#126031" fill-opacity="1"><g transform="translate(111.05386, 203.681303)"><g><path d="M 3.34375 -42.9375 L 13.203125 -42.9375 C 17.085938 -42.9375 19.960938 -42.0625 21.828125 -40.3125 C 23.703125 -38.5625 24.640625 -35.847656 24.640625 -32.171875 C 24.640625 -26.691406 22.59375 -23.671875 18.5 -23.109375 C 21.039062 -22.503906 22.894531 -21.3125 24.0625 -19.53125 C 25.226562 -17.75 25.8125 -15.320312 25.8125 -12.25 C 25.8125 -8.394531 24.898438 -5.390625 23.078125 -3.234375 C 21.265625 -1.078125 18.5 0 14.78125 0 L 3.34375 0 Z M 12.875 -25.015625 C 15.351562 -25.015625 17.066406 -25.550781 18.015625 -26.625 C 18.972656 -27.707031 19.453125 -29.554688 19.453125 -32.171875 C 19.453125 -34.078125 19.160156 -35.476562 18.578125 -36.375 C 17.992188 -37.28125 17.117188 -37.859375 15.953125 -38.109375 C 14.785156 -38.359375 13.054688 -38.484375 10.765625 -38.484375 L 9.328125 -38.484375 L 9.328125 -25.015625 Z M 13.359375 -4.296875 C 15.117188 -4.296875 16.484375 -4.566406 17.453125 -5.109375 C 18.429688 -5.660156 19.113281 -6.5 19.5 -7.625 C 19.894531 -8.757812 20.09375 -10.300781 20.09375 -12.25 C 20.09375 -15 19.523438 -17.050781 18.390625 -18.40625 C 17.253906 -19.769531 15.414062 -20.453125 12.875 -20.453125 L 9.328125 -20.453125 L 9.328125 -4.296875 Z M 13.359375 -4.296875 "/></g></g></g><g fill="#126031" fill-opacity="1"><g transform="translate(138.820207, 203.681303)"><g><path d="M 3.34375 -42.9375 L 19.984375 -42.9375 L 19.984375 -38.484375 L 9.328125 -38.484375 L 9.328125 -24.28125 L 17.96875 -24.28125 L 17.96875 -20.03125 L 9.328125 -20.03125 L 9.328125 -4.296875 L 20.09375 -4.296875 L 20.09375 0 L 3.34375 0 Z M 3.34375 -42.9375 "/></g></g></g><g fill="#126031" fill-opacity="1"><g transform="translate(160.386815, 203.681303)"><g><path d="M 8.0625 -38.484375 L 0.796875 -38.484375 L 0.796875 -42.9375 L 21.09375 -42.9375 L 21.09375 -38.484375 L 14.046875 -38.484375 L 14.046875 0 L 8.0625 0 Z M 8.0625 -38.484375 "/></g></g></g><g fill="#126031" fill-opacity="1"><g transform="translate(182.271361, 203.681303)"><g><path d="M 8.0625 -38.484375 L 0.796875 -38.484375 L 0.796875 -42.9375 L 21.09375 -42.9375 L 21.09375 -38.484375 L 14.046875 -38.484375 L 14.046875 0 L 8.0625 0 Z M 8.0625 -38.484375 "/></g></g></g><g fill="#126031" fill-opacity="1"><g transform="translate(204.155908, 203.681303)"><g><path d="M 3.65625 -42.9375 L 9.546875 -42.9375 L 9.546875 0 L 3.65625 0 Z M 3.65625 -42.9375 "/></g></g></g><g fill="#126031" fill-opacity="1"><g transform="translate(217.297226, 203.681303)"><g><path d="M 3.34375 -42.9375 L 7.421875 -42.9375 L 19.609375 -14.421875 L 19.609375 -42.9375 L 24.59375 -42.9375 L 24.59375 0 L 20.78125 0 L 8.421875 -29.3125 L 8.421875 0 L 3.34375 0 Z M 3.34375 -42.9375 "/></g></g></g><g fill="#126031" fill-opacity="1"><g transform="translate(245.275533, 203.681303)"><g><path d="M 13.5625 0.53125 C 9.675781 0.53125 6.867188 -0.695312 5.140625 -3.15625 C 3.410156 -5.613281 2.546875 -9.257812 2.546875 -14.09375 L 2.546875 -28.46875 C 2.546875 -31.78125 2.890625 -34.503906 3.578125 -36.640625 C 4.265625 -38.785156 5.445312 -40.429688 7.125 -41.578125 C 8.800781 -42.722656 11.109375 -43.296875 14.046875 -43.296875 C 18.003906 -43.296875 20.859375 -42.289062 22.609375 -40.28125 C 24.359375 -38.269531 25.234375 -35.109375 25.234375 -30.796875 L 25.234375 -29.203125 L 19.609375 -29.203125 L 19.609375 -30.53125 C 19.609375 -32.582031 19.484375 -34.160156 19.234375 -35.265625 C 18.992188 -36.378906 18.472656 -37.21875 17.671875 -37.78125 C 16.878906 -38.351562 15.707031 -38.640625 14.15625 -38.640625 C 12.488281 -38.640625 11.25 -38.257812 10.4375 -37.5 C 9.625 -36.738281 9.101562 -35.722656 8.875 -34.453125 C 8.644531 -33.179688 8.53125 -31.484375 8.53125 -29.359375 L 8.53125 -13.46875 C 8.53125 -10.175781 8.925781 -7.8125 9.71875 -6.375 C 10.519531 -4.945312 12.050781 -4.234375 14.3125 -4.234375 C 16.539062 -4.234375 18.066406 -5.007812 18.890625 -6.5625 C 19.722656 -8.125 20.140625 -10.617188 20.140625 -14.046875 L 20.140625 -17.015625 L 14.6875 -17.015625 L 14.6875 -21.25 L 25.546875 -21.25 L 25.546875 0 L 21.78125 0 L 21.203125 -4.921875 C 19.859375 -1.285156 17.3125 0.53125 13.5625 0.53125 Z M 13.5625 0.53125 "/></g></g></g><g fill="#126031" fill-opacity="1"><g transform="translate(115.796401, 242.237854)"><g><path d="M 4.171875 0 L 1.734375 -6.390625 L 1.703125 -6.390625 C 1.742188 -5.878906 1.765625 -5.273438 1.765625 -4.578125 L 1.765625 0 L 0.984375 0 L 0.984375 -7.203125 L 2.25 -7.203125 L 4.53125 -1.265625 L 4.578125 -1.265625 L 6.875 -7.203125 L 8.125 -7.203125 L 8.125 0 L 7.296875 0 L 7.296875 -4.640625 C 7.296875 -5.171875 7.316406 -5.75 7.359375 -6.375 L 7.3125 -6.375 L 4.859375 0 Z M 4.171875 0 "/></g></g></g><g fill="#126031" fill-opacity="1"><g transform="translate(128.943959, 242.237854)"><g><path d="M 5.515625 0 L 4.625 -2.296875 L 1.734375 -2.296875 L 0.84375 0 L 0 0 L 2.84375 -7.234375 L 3.546875 -7.234375 L 6.390625 0 Z M 4.359375 -3.046875 L 3.53125 -5.28125 C 3.414062 -5.5625 3.300781 -5.90625 3.1875 -6.3125 C 3.113281 -6 3.007812 -5.65625 2.875 -5.28125 L 2.03125 -3.046875 Z M 4.359375 -3.046875 "/></g></g></g><g fill="#126031" fill-opacity="1"><g transform="translate(139.367057, 242.237854)"><g><path d="M 6.1875 0 L 5.203125 0 L 2.578125 -3.5 L 1.828125 -2.828125 L 1.828125 0 L 0.984375 0 L 0.984375 -7.203125 L 1.828125 -7.203125 L 1.828125 -3.625 L 5.09375 -7.203125 L 6.09375 -7.203125 L 3.1875 -4.078125 Z M 6.1875 0 "/></g></g></g><g fill="#126031" fill-opacity="1"><g transform="translate(149.59802, 242.237854)"><g><path d="M 5 0 L 0.984375 0 L 0.984375 -7.203125 L 5 -7.203125 L 5 -6.46875 L 1.828125 -6.46875 L 1.828125 -4.140625 L 4.8125 -4.140625 L 4.8125 -3.40625 L 1.828125 -3.40625 L 1.828125 -0.75 L 5 -0.75 Z M 5 0 "/></g></g></g><g fill="#126031" fill-opacity="1"><g transform="translate(159.247635, 242.237854)"><g/></g></g><g fill="#126031" fill-opacity="1"><g transform="translate(165.906751, 242.237854)"><g><path d="M 0.984375 0 L 0.984375 -7.203125 L 1.828125 -7.203125 L 1.828125 0 Z M 0.984375 0 "/></g></g></g><g fill="#126031" fill-opacity="1"><g transform="translate(172.758013, 242.237854)"><g><path d="M 3.203125 0 L 2.375 0 L 2.375 -6.46875 L 0.09375 -6.46875 L 0.09375 -7.203125 L 5.484375 -7.203125 L 5.484375 -6.46875 L 3.203125 -6.46875 Z M 3.203125 0 "/></g></g></g><g fill="#126031" fill-opacity="1"><g transform="translate(182.378071, 242.237854)"><g/></g></g><g fill="#126031" fill-opacity="1"><g transform="translate(189.037187, 242.237854)"><g><path d="M 4.171875 0 L 1.734375 -6.390625 L 1.703125 -6.390625 C 1.742188 -5.878906 1.765625 -5.273438 1.765625 -4.578125 L 1.765625 0 L 0.984375 0 L 0.984375 -7.203125 L 2.25 -7.203125 L 4.53125 -1.265625 L 4.578125 -1.265625 L 6.875 -7.203125 L 8.125 -7.203125 L 8.125 0 L 7.296875 0 L 7.296875 -4.640625 C 7.296875 -5.171875 7.316406 -5.75 7.359375 -6.375 L 7.3125 -6.375 L 4.859375 0 Z M 4.171875 0 "/></g></g></g><g fill="#126031" fill-opacity="1"><g transform="translate(202.184743, 242.237854)"><g><path d="M 7.25 -3.609375 C 7.25 -2.453125 6.957031 -1.546875 6.375 -0.890625 C 5.789062 -0.234375 4.976562 0.09375 3.9375 0.09375 C 2.875 0.09375 2.050781 -0.226562 1.46875 -0.875 C 0.894531 -1.519531 0.609375 -2.4375 0.609375 -3.625 C 0.609375 -4.789062 0.894531 -5.695312 1.46875 -6.34375 C 2.050781 -6.988281 2.878906 -7.3125 3.953125 -7.3125 C 4.984375 -7.3125 5.789062 -6.984375 6.375 -6.328125 C 6.957031 -5.671875 7.25 -4.765625 7.25 -3.609375 Z M 1.5 -3.609375 C 1.5 -2.640625 1.707031 -1.898438 2.125 -1.390625 C 2.539062 -0.890625 3.144531 -0.640625 3.9375 -0.640625 C 4.738281 -0.640625 5.34375 -0.890625 5.75 -1.390625 C 6.15625 -1.890625 6.359375 -2.628906 6.359375 -3.609375 C 6.359375 -4.578125 6.15625 -5.3125 5.75 -5.8125 C 5.34375 -6.3125 4.742188 -6.5625 3.953125 -6.5625 C 3.148438 -6.5625 2.539062 -6.3125 2.125 -5.8125 C 1.707031 -5.3125 1.5 -4.578125 1.5 -3.609375 Z M 1.5 -3.609375 "/></g></g></g><g fill="#126031" fill-opacity="1"><g transform="translate(214.080921, 242.237854)"><g><path d="M 1.828125 -3 L 1.828125 0 L 0.984375 0 L 0.984375 -7.203125 L 2.96875 -7.203125 C 3.851562 -7.203125 4.503906 -7.03125 4.921875 -6.6875 C 5.347656 -6.351562 5.5625 -5.847656 5.5625 -5.171875 C 5.5625 -4.210938 5.078125 -3.566406 4.109375 -3.234375 L 6.0625 0 L 5.078125 0 L 3.328125 -3 Z M 1.828125 -3.71875 L 2.984375 -3.71875 C 3.566406 -3.71875 3.992188 -3.832031 4.265625 -4.0625 C 4.546875 -4.300781 4.6875 -4.65625 4.6875 -5.125 C 4.6875 -5.601562 4.546875 -5.945312 4.265625 -6.15625 C 3.984375 -6.363281 3.535156 -6.46875 2.921875 -6.46875 L 1.828125 -6.46875 Z M 1.828125 -3.71875 "/></g></g></g><g fill="#126031" fill-opacity="1"><g transform="translate(224.356216, 242.237854)"><g><path d="M 5 0 L 0.984375 0 L 0.984375 -7.203125 L 5 -7.203125 L 5 -6.46875 L 1.828125 -6.46875 L 1.828125 -4.140625 L 4.8125 -4.140625 L 4.8125 -3.40625 L 1.828125 -3.40625 L 1.828125 -0.75 L 5 -0.75 Z M 5 0 "/></g></g></g><g fill="#126031" fill-opacity="1"><g transform="translate(234.005827, 242.237854)"><g/></g></g><g fill="#126031" fill-opacity="1"><g transform="translate(240.664938, 242.237854)"><g><path d="M 1.828125 0 L 0.984375 0 L 0.984375 -7.203125 L 5 -7.203125 L 5 -6.46875 L 1.828125 -6.46875 L 1.828125 -3.828125 L 4.8125 -3.828125 L 4.8125 -3.078125 L 1.828125 -3.078125 Z M 1.828125 0 "/></g></g></g><g fill="#126031" fill-opacity="1"><g transform="translate(249.910562, 242.237854)"><g><path d="M 6.4375 -7.203125 L 6.4375 -2.546875 C 6.4375 -1.722656 6.1875 -1.078125 5.6875 -0.609375 C 5.1875 -0.140625 4.503906 0.09375 3.640625 0.09375 C 2.773438 0.09375 2.101562 -0.140625 1.625 -0.609375 C 1.15625 -1.085938 0.921875 -1.738281 0.921875 -2.5625 L 0.921875 -7.203125 L 1.75 -7.203125 L 1.75 -2.5 C 1.75 -1.90625 1.910156 -1.445312 2.234375 -1.125 C 2.566406 -0.800781 3.054688 -0.640625 3.703125 -0.640625 C 4.304688 -0.640625 4.769531 -0.800781 5.09375 -1.125 C 5.425781 -1.445312 5.59375 -1.910156 5.59375 -2.515625 L 5.59375 -7.203125 Z M 6.4375 -7.203125 "/></g></g></g><g fill="#126031" fill-opacity="1"><g transform="translate(261.294366, 242.237854)"><g><path d="M 6.625 0 L 5.65625 0 L 1.71875 -6.046875 L 1.6875 -6.046875 C 1.738281 -5.335938 1.765625 -4.6875 1.765625 -4.09375 L 1.765625 0 L 0.984375 0 L 0.984375 -7.203125 L 1.9375 -7.203125 L 5.859375 -1.1875 L 5.90625 -1.1875 C 5.894531 -1.269531 5.878906 -1.550781 5.859375 -2.03125 C 5.835938 -2.519531 5.828125 -2.867188 5.828125 -3.078125 L 5.828125 -7.203125 L 6.625 -7.203125 Z M 6.625 0 "/></g></g></g><g clip-path="url(#9a2c082070)"><path fill="#126031" d="M 98.789062 159.957031 L 287.351562 159.957031 L 287.351562 348.523438 L 98.789062 348.523438 Z M 98.789062 159.957031 " fill-opacity="1" fill-rule="nonzero"/></g><g clip-path="url(#73538a8e23)"><path fill="#126031" d="M 98.789062 129.316406 L 287.351562 129.316406 L 287.351562 317.878906 L 98.789062 317.878906 Z M 98.789062 129.316406 " fill-opacity="1" fill-rule="nonzero"/></g></svg>